<svg width="16" height="17" viewBox="0 0 16 17" fill="none" xmlns="http://www.w3.org/2000/svg">
<path d="M0.5 8.37778C0.5 6.85515 0.501062 5.76348 0.612699 4.93314C0.722402 4.11718 0.930567 3.62884 1.29081 3.26859C1.65106 2.90835 2.13939 2.70018 2.95535 2.59048C3.7857 2.47885 4.87737 2.47778 6.4 2.47778H9.6C11.1226 2.47778 12.2143 2.47885 13.0446 2.59048C13.8606 2.70018 14.3489 2.90835 14.7092 3.26859C15.0694 3.62884 15.2776 4.11718 15.3873 4.93314C15.4989 5.76348 15.5 6.85515 15.5 8.37778V9.97778C15.5 11.5004 15.4989 12.5921 15.3873 13.4224C15.2776 14.2384 15.0694 14.7267 14.7092 15.087C14.3489 15.4472 13.8606 15.6554 13.0446 15.7651C12.2143 15.8767 11.1226 15.8778 9.6 15.8778H6.4C4.87737 15.8778 3.7857 15.8767 2.95535 15.7651C2.13939 15.6554 1.65106 15.4472 1.29081 15.087C0.930567 14.7267 0.722402 14.2384 0.612699 13.4224C0.501062 12.5921 0.5 11.5004 0.5 9.97778V8.37778Z" stroke="#4381C5"/>
<path d="M3.55554 2.2V1" stroke="#4381C5" stroke-linecap="round"/>
<path d="M11.5555 2.2V1" stroke="#4381C5" stroke-linecap="round"/>
<path d="M1.33325 5.97791H14.6666" stroke="#4381C5" stroke-linecap="round"/>
<path d="M13.0369 12.0815C13.0369 12.4906 12.7053 12.8223 12.2962 12.8223C11.8871 12.8223 11.5554 12.4906 11.5554 12.0815C11.5554 11.6724 11.8871 11.3408 12.2962 11.3408C12.7053 11.3408 13.0369 11.6724 13.0369 12.0815Z" fill="#4381C5"/>
<path d="M13.0369 9.11855C13.0369 9.52765 12.7053 9.85929 12.2962 9.85929C11.8871 9.85929 11.5554 9.52765 11.5554 9.11855C11.5554 8.70945 11.8871 8.37781 12.2962 8.37781C12.7053 8.37781 13.0369 8.70945 13.0369 9.11855Z" fill="#4381C5"/>
<path d="M9.0369 12.0815C9.0369 12.4906 8.70526 12.8223 8.29616 12.8223C7.88706 12.8223 7.55542 12.4906 7.55542 12.0815C7.55542 11.6724 7.88706 11.3408 8.29616 11.3408C8.70526 11.3408 9.0369 11.6724 9.0369 12.0815Z" fill="#4381C5"/>
<path d="M9.0369 9.11855C9.0369 9.52765 8.70526 9.85929 8.29616 9.85929C7.88706 9.85929 7.55542 9.52765 7.55542 9.11855C7.55542 8.70945 7.88706 8.37781 8.29616 8.37781C8.70526 8.37781 9.0369 8.70945 9.0369 9.11855Z" fill="#4381C5"/>
<path d="M5.03702 12.0815C5.03702 12.4906 4.70538 12.8223 4.29628 12.8223C3.88718 12.8223 3.55554 12.4906 3.55554 12.0815C3.55554 11.6724 3.88718 11.3408 4.29628 11.3408C4.70538 11.3408 5.03702 11.6724 5.03702 12.0815Z" fill="#4381C5"/>
<path d="M5.03702 9.11855C5.03702 9.52765 4.70538 9.85929 4.29628 9.85929C3.88718 9.85929 3.55554 9.52765 3.55554 9.11855C3.55554 8.70945 3.88718 8.37781 4.29628 8.37781C4.70538 8.37781 5.03702 8.70945 5.03702 9.11855Z" fill="#4381C5"/>
</svg>
