<svg width="24" height="24" viewBox="0 0 24 24" fill="none" xmlns="http://www.w3.org/2000/svg">
<path fill-rule="evenodd" clip-rule="evenodd" d="M6.6 9.84224V8.80002C6.6 5.81769 9.01767 3.40002 12 3.40002C14.9823 3.40002 17.4 5.81769 17.4 8.80002V9.84224C17.5815 9.855 17.7525 9.87161 17.9134 9.89324C18.6335 9.99006 19.2398 10.1972 19.7213 10.6787C20.2029 11.1602 20.41 11.7665 20.5068 12.4866C20.6 13.1802 20.6 14.0621 20.6 15.1561V15.2439C20.6 16.338 20.6 17.2199 20.5068 17.9134C20.41 18.6335 20.2029 19.2398 19.7213 19.7213C19.2398 20.2029 18.6335 20.41 17.9134 20.5068C17.2198 20.6001 16.338 20.6 15.2439 20.6H8.75611C7.66203 20.6 6.78018 20.6001 6.0866 20.5068C5.36652 20.41 4.76022 20.2029 4.27868 19.7213C3.79715 19.2398 3.59003 18.6335 3.49322 17.9134C3.39997 17.2199 3.39999 16.338 3.4 15.2439V15.1561C3.39999 14.0621 3.39997 13.1802 3.49322 12.4866C3.59003 11.7665 3.79715 11.1602 4.27868 10.6787C4.76022 10.1972 5.36652 9.99006 6.0866 9.89324C6.2475 9.87161 6.41854 9.855 6.6 9.84224ZM7.8 8.80002C7.8 6.48043 9.68041 4.60002 12 4.60002C14.3196 4.60002 16.2 6.48043 16.2 8.80002V9.80278C15.9012 9.80001 15.5827 9.80002 15.2439 9.80002H8.7561C8.41729 9.80002 8.09882 9.80001 7.8 9.80278V8.80002ZM5.12721 11.5272C5.34862 11.3058 5.65948 11.1615 6.2465 11.0825C6.85078 11.0013 7.65167 11 8.8 11H15.2C16.3483 11 17.1492 11.0013 17.7535 11.0825C18.3405 11.1615 18.6514 11.3058 18.8728 11.5272C19.0942 11.7486 19.2386 12.0595 19.3175 12.6465C19.3987 13.2508 19.4 14.0517 19.4 15.2C19.4 16.3484 19.3987 17.1492 19.3175 17.7535C19.2386 18.3405 19.0942 18.6514 18.8728 18.8728C18.6514 19.0942 18.3405 19.2386 17.7535 19.3175C17.1492 19.3988 16.3483 19.4 15.2 19.4H8.8C7.65167 19.4 6.85078 19.3988 6.2465 19.3175C5.65948 19.2386 5.34862 19.0942 5.12721 18.8728C4.9058 18.6514 4.76144 18.3405 4.68252 17.7535C4.60128 17.1492 4.6 16.3484 4.6 15.2C4.6 14.0517 4.60128 13.2508 4.68252 12.6465C4.76144 12.0595 4.9058 11.7486 5.12721 11.5272Z" fill="#5F5E5E"/>
</svg>
