<svg width="231" height="62" viewBox="0 0 231 62" fill="none" xmlns="http://www.w3.org/2000/svg">
<g clip-path="url(#clip0_3618_19983)">
<path d="M63.4317 41.7996V49.4111H67.1482V50.5045H62.2866V41.7996H63.4317ZM74.0892 47.8916H68.9326C69.1433 48.9993 69.9934 49.6454 71.1596 49.6454C71.9746 49.6454 72.5647 49.3472 72.93 48.7366L73.8433 49.262C73.2391 50.1921 72.3399 50.6679 71.1385 50.6679C70.169 50.6679 69.3682 50.3554 68.7499 49.7448C68.1457 49.12 67.8366 48.339 67.8366 47.3946C67.8366 46.4503 68.1317 45.6763 68.7359 45.0586C69.3401 44.4338 70.1128 44.1285 71.0613 44.1285C71.9605 44.1285 72.6982 44.4551 73.2672 45.1012C73.8433 45.7331 74.1313 46.5071 74.1313 47.4159C74.1313 47.5792 74.1173 47.7425 74.0962 47.8987L74.0892 47.8916ZM71.0613 45.1438C69.9161 45.1438 69.1152 45.8538 68.9326 46.9473H73.0424C72.8597 45.7686 72.0448 45.1438 71.0613 45.1438ZM80.4401 45.3568V44.2847H81.5079V50.5045H80.4401V49.4324C79.9132 50.256 79.1334 50.6608 78.1147 50.6608C77.2506 50.6608 76.5129 50.3483 75.9087 49.7164C75.3046 49.0845 74.9954 48.2963 74.9954 47.3875C74.9954 46.4787 75.3046 45.7118 75.9087 45.0728C76.5129 44.4409 77.2506 44.1143 78.1147 44.1143C79.1334 44.1143 79.9132 44.5261 80.4401 45.3426V45.3568ZM78.2482 49.6241C78.8734 49.6241 79.3933 49.4111 79.8078 48.9922C80.2293 48.5591 80.4331 48.0336 80.4331 47.4017C80.4331 46.7698 80.2223 46.2444 79.8078 45.8254C79.3863 45.3923 78.8734 45.1793 78.2482 45.1793C77.6229 45.1793 77.1171 45.3923 76.6956 45.8254C76.2741 46.2515 76.0703 46.7698 76.0703 47.4017C76.0703 48.0336 76.2811 48.5591 76.6956 48.9922C77.1171 49.4182 77.6299 49.6241 78.2482 49.6241ZM88.2242 45.3568V41.7996H89.292V50.5045H88.2242V49.4324C87.6973 50.256 86.9174 50.6608 85.8988 50.6608C85.0346 50.6608 84.297 50.3483 83.6928 49.7164C83.0886 49.0845 82.7795 48.2963 82.7795 47.3875C82.7795 46.4787 83.0886 45.7118 83.6928 45.0728C84.297 44.4409 85.0346 44.1143 85.8988 44.1143C86.9174 44.1143 87.6973 44.5261 88.2242 45.3426V45.3568ZM86.0322 49.6241C86.6575 49.6241 87.1774 49.4111 87.5919 48.9922C88.0134 48.5591 88.2171 48.0336 88.2171 47.4017C88.2171 46.7698 88.0064 46.2444 87.5919 45.8254C87.1704 45.3923 86.6575 45.1793 86.0322 45.1793C85.407 45.1793 84.9012 45.3923 84.4796 45.8254C84.0581 46.2515 83.8544 46.7698 83.8544 47.4017C83.8544 48.0336 84.0652 48.5591 84.4796 48.9922C84.9012 49.4182 85.414 49.6241 86.0322 49.6241ZM91.4558 43.5178C91.0483 43.5178 90.7322 43.1912 90.7322 42.7936C90.7322 42.396 91.0554 42.0623 91.4558 42.0623C91.8562 42.0623 92.1724 42.396 92.1724 42.7936C92.1724 43.1912 91.8492 43.5178 91.4558 43.5178ZM91.9827 50.5045H90.9149V44.2847H91.9827V50.5045ZM96.6826 44.1214C98.1228 44.1214 99.0713 45.1012 99.0713 46.6846V50.5045H98.0034V46.7485C98.0034 45.7402 97.4273 45.158 96.4789 45.158C95.4111 45.158 94.6945 45.8183 94.6945 47.21V50.5045H93.6266V44.2847H94.6945V45.1793C95.123 44.4693 95.7904 44.1214 96.6897 44.1214H96.6826ZM105.668 45.3497V44.2776H106.729V50.2347C106.729 51.1578 106.42 51.8607 105.809 52.3719C105.19 52.8832 104.453 53.1459 103.596 53.1459C102.219 53.1459 101.186 52.6133 100.68 51.6264L101.614 51.0939C101.945 51.7897 102.626 52.1376 103.624 52.1376C104.902 52.1376 105.682 51.4134 105.682 50.2347V49.3543C105.141 50.185 104.368 50.5969 103.371 50.5969C102.5 50.5969 101.748 50.2844 101.144 49.6525C100.54 49.0206 100.23 48.2609 100.23 47.352C100.23 46.4432 100.54 45.6834 101.144 45.0657C101.748 44.4338 102.5 44.1214 103.371 44.1214C104.382 44.1214 105.155 44.5332 105.682 45.3497H105.668ZM105.668 47.352C105.668 46.7272 105.457 46.2089 105.043 45.7828C104.628 45.3568 104.108 45.1509 103.483 45.1509C102.858 45.1509 102.338 45.3639 101.924 45.7828C101.509 46.2018 101.298 46.7272 101.298 47.352C101.298 47.9768 101.509 48.5094 101.924 48.9283C102.338 49.3472 102.858 49.5602 103.483 49.5602C104.108 49.5602 104.628 49.3472 105.043 48.9283C105.457 48.5094 105.668 47.9839 105.668 47.352ZM115.581 50.6608C114.274 50.6608 113.192 50.2276 112.342 49.3543C111.492 48.481 111.078 47.4159 111.078 46.145C111.078 44.874 111.499 43.8089 112.342 42.9356C113.192 42.0623 114.274 41.6292 115.581 41.6292C117.154 41.6292 118.56 42.4528 119.297 43.745L118.3 44.3273C117.808 43.3687 116.761 42.751 115.581 42.751C114.583 42.751 113.775 43.0776 113.143 43.7237C112.518 44.3699 112.209 45.1793 112.209 46.1521C112.209 47.1248 112.518 47.92 113.143 48.5662C113.768 49.2123 114.583 49.5389 115.581 49.5389C116.761 49.5389 117.808 48.9141 118.3 47.9697L119.297 48.5449C118.939 49.191 118.426 49.7164 117.759 50.0998C117.091 50.4832 116.368 50.675 115.581 50.675V50.6608ZM124.763 47.5792V44.2847H125.831V50.5045H124.763V49.6099C124.334 50.3199 123.667 50.6679 122.768 50.6679C121.328 50.6679 120.379 49.688 120.379 48.1046V44.2847H121.447V48.0407C121.447 49.049 122.023 49.6312 122.971 49.6312C124.039 49.6312 124.756 48.9709 124.756 47.5792H124.763ZM128.374 45.9603C128.374 46.4432 128.915 46.7059 129.589 46.8905C130.552 47.1035 131.83 47.4656 131.816 48.7934C131.816 49.3543 131.592 49.8158 131.163 50.1495C130.734 50.4832 130.193 50.6608 129.512 50.6608C128.318 50.6608 127.418 50.0856 127.06 49.2052L127.981 48.6727C128.177 49.2691 128.753 49.6454 129.505 49.6454C130.208 49.6454 130.72 49.3827 130.72 48.8005C130.72 48.3177 130.179 48.0407 129.505 47.8774C128.536 47.6147 127.278 47.2952 127.278 45.9745C127.278 45.442 127.489 44.9947 127.896 44.6468C128.318 44.2989 128.831 44.1214 129.456 44.1214C130.453 44.1214 131.275 44.6042 131.669 45.4136L130.77 45.9248C130.545 45.3923 130.102 45.1296 129.456 45.1296C128.852 45.1296 128.36 45.4278 128.36 45.9603H128.374ZM136.193 44.2847V45.3284H134.556V48.7011C134.556 49.6596 135.097 49.5815 136.193 49.5318V50.5045C134.324 50.7531 133.488 50.2418 133.488 48.7011V45.3284H132.273V44.2847H133.488V42.8646L134.556 42.538V44.2776H136.193V44.2847ZM142.692 49.7164C142.066 50.3483 141.286 50.6608 140.387 50.6608C139.488 50.6608 138.715 50.3483 138.083 49.7164C137.451 49.0845 137.149 48.3106 137.149 47.3875C137.149 46.4645 137.458 45.6976 138.083 45.0586C138.708 44.4196 139.488 44.1143 140.387 44.1143C141.286 44.1143 142.059 44.4267 142.692 45.0586C143.324 45.6905 143.64 46.4645 143.64 47.3875C143.64 48.3106 143.317 49.0774 142.692 49.7164ZM140.387 49.6028C141.005 49.6028 141.518 49.3898 141.94 48.9709C142.361 48.552 142.565 48.0265 142.565 47.3946C142.565 46.7627 142.354 46.2373 141.94 45.8183C141.525 45.3994 141.005 45.1864 140.387 45.1864C139.769 45.1864 139.27 45.3994 138.849 45.8183C138.427 46.2373 138.223 46.7627 138.223 47.3946C138.223 48.0265 138.434 48.552 138.849 48.9709C139.263 49.3898 139.783 49.6028 140.387 49.6028ZM151.543 44.1214C152.92 44.1214 153.855 45.0941 153.855 46.6349V50.5045H152.787V46.6775C152.787 45.7189 152.26 45.158 151.431 45.158C150.511 45.158 149.921 45.7686 149.921 47.0467V50.5045H148.853V46.6775C148.853 45.7189 148.347 45.158 147.546 45.158C146.647 45.158 145.972 45.7899 145.972 47.0467V50.5045H144.905V44.2847H145.972V45.1154C146.394 44.4551 147.005 44.1214 147.806 44.1214C148.607 44.1214 149.232 44.4693 149.612 45.1793C150.04 44.4693 150.679 44.1214 151.543 44.1214ZM161.245 47.8916H156.089C156.3 48.9993 157.15 49.6454 158.316 49.6454C159.131 49.6454 159.721 49.3472 160.086 48.7366L161 49.262C160.395 50.1921 159.496 50.6679 158.295 50.6679C157.325 50.6679 156.524 50.3554 155.906 49.7448C155.302 49.12 154.993 48.339 154.993 47.3946C154.993 46.4503 155.288 45.6763 155.892 45.0586C156.496 44.4338 157.269 44.1285 158.218 44.1285C159.117 44.1285 159.854 44.4551 160.424 45.1012C161 45.7331 161.288 46.5071 161.288 47.4159C161.288 47.5792 161.274 47.7425 161.252 47.8987L161.245 47.8916ZM158.218 45.1438C157.072 45.1438 156.272 45.8538 156.089 46.9473H160.199C160.016 45.7686 159.201 45.1438 158.218 45.1438ZM163.585 44.2847V45.3284C163.943 44.5545 164.583 44.1711 165.503 44.1711V45.3C164.976 45.2716 164.533 45.4136 164.147 45.726C163.768 46.0385 163.578 46.5213 163.578 47.2029V50.4975H162.51V44.2776H163.578L163.585 44.2847ZM170.884 46.6491V49.4111H174.882V50.5045H169.739V41.7996H174.818V42.893H170.877V45.5698H174.509V46.6491H170.877H170.884ZM179.146 47.2952L181.5 50.5045H180.242L178.521 48.1543L176.786 50.5045H175.528L177.888 47.3094L175.661 44.2847H176.926L178.514 46.4503L180.101 44.2847H181.359L179.146 47.2952ZM185.883 44.1214C186.747 44.1214 187.485 44.448 188.089 45.0799C188.693 45.7118 189.003 46.4858 189.003 47.3946C189.003 48.3035 188.693 49.0845 188.089 49.7235C187.485 50.3554 186.747 50.6679 185.883 50.6679C184.865 50.6679 184.085 50.256 183.558 49.4395V52.9968H182.49V44.2918H183.558V45.3639C184.085 44.5403 184.865 44.1356 185.883 44.1356V44.1214ZM185.75 49.617C186.368 49.617 186.881 49.404 187.302 48.9851C187.724 48.552 187.928 48.0265 187.928 47.3946C187.928 46.7627 187.717 46.2373 187.302 45.8183C186.881 45.3852 186.368 45.1722 185.75 45.1722C185.132 45.1722 184.605 45.3852 184.19 45.8183C183.769 46.2444 183.565 46.7627 183.565 47.3946C183.565 48.0265 183.776 48.552 184.19 48.9851C184.612 49.4111 185.125 49.617 185.75 49.617ZM196.182 47.8916H191.026C191.237 48.9993 192.087 49.6454 193.253 49.6454C194.068 49.6454 194.658 49.3472 195.023 48.7366L195.937 49.262C195.332 50.1921 194.433 50.6679 193.232 50.6679C192.262 50.6679 191.461 50.3554 190.843 49.7448C190.239 49.12 189.93 48.339 189.93 47.3946C189.93 46.4503 190.225 45.6763 190.829 45.0586C191.433 44.4338 192.206 44.1285 193.155 44.1285C194.054 44.1285 194.791 44.4551 195.36 45.1012C195.937 45.7331 196.225 46.5071 196.225 47.4159C196.225 47.5792 196.211 47.7425 196.189 47.8987L196.182 47.8916ZM193.155 45.1438C192.009 45.1438 191.209 45.8538 191.026 46.9473H195.136C194.953 45.7686 194.138 45.1438 193.155 45.1438ZM198.522 44.2847V45.3284C198.88 44.5545 199.519 44.1711 200.44 44.1711V45.3C199.913 45.2716 199.47 45.4136 199.084 45.726C198.705 46.0385 198.515 46.5213 198.515 47.2029V50.4975H197.447V44.2776H198.515L198.522 44.2847ZM202.028 43.5107C201.62 43.5107 201.304 43.1841 201.304 42.7865C201.304 42.3889 201.627 42.0552 202.028 42.0552C202.428 42.0552 202.744 42.3889 202.744 42.7865C202.744 43.1841 202.421 43.5107 202.028 43.5107ZM202.554 50.4975H201.487V44.2776H202.554V50.4975ZM210.093 47.8845H204.936C205.147 48.9922 205.997 49.6383 207.163 49.6383C207.978 49.6383 208.568 49.3401 208.933 48.7295L209.847 49.2549C209.243 50.185 208.343 50.6608 207.142 50.6608C206.172 50.6608 205.372 50.3483 204.753 49.7377C204.149 49.1129 203.84 48.3319 203.84 47.3875C203.84 46.4432 204.135 45.6692 204.739 45.0515C205.343 44.4267 206.116 44.1214 207.065 44.1214C207.964 44.1214 208.702 44.448 209.271 45.0941C209.847 45.726 210.135 46.5 210.135 47.4088C210.135 47.5721 210.121 47.7354 210.1 47.8916L210.093 47.8845ZM207.065 45.1367C205.92 45.1367 205.119 45.8467 204.936 46.9402H209.046C208.863 45.7615 208.048 45.1367 207.065 45.1367ZM214.42 44.1143C215.86 44.1143 216.809 45.0941 216.809 46.6775V50.4975H215.741V46.7414C215.741 45.7331 215.165 45.1509 214.216 45.1509C213.149 45.1509 212.432 45.8112 212.432 47.2029V50.4975H211.364V44.2776H212.432V45.1722C212.861 44.4622 213.528 44.1143 214.427 44.1143H214.42ZM221.193 50.6537C220.272 50.6537 219.493 50.3412 218.881 49.7235C218.263 49.0916 217.961 48.3177 217.961 47.3875C217.961 46.4574 218.27 45.6834 218.881 45.0586C219.5 44.4267 220.272 44.1143 221.193 44.1143C222.408 44.1143 223.434 44.7462 223.911 45.7402L223.012 46.2657C222.703 45.6053 222.015 45.1722 221.193 45.1722C220.574 45.1722 220.062 45.3852 219.64 45.8041C219.233 46.2302 219.022 46.7485 219.022 47.3804C219.022 48.0123 219.233 48.5236 219.64 48.9496C220.062 49.3756 220.574 49.5815 221.193 49.5815C222.015 49.5815 222.703 49.1555 223.047 48.5023L223.961 49.0348C223.434 50.0146 222.387 50.6537 221.193 50.6537ZM230.937 47.8774H225.78C225.991 48.9851 226.841 49.6312 228.007 49.6312C228.822 49.6312 229.412 49.333 229.778 48.7224L230.691 49.2478C230.087 50.1779 229.187 50.6537 227.986 50.6537C227.017 50.6537 226.216 50.3412 225.598 49.7306C224.993 49.1058 224.684 48.3248 224.684 47.3804C224.684 46.4361 224.979 45.6621 225.583 45.0444C226.188 44.4267 226.96 44.1143 227.909 44.1143C228.808 44.1143 229.546 44.4409 230.115 45.087C230.691 45.7189 230.979 46.4929 230.979 47.4017C230.979 47.565 230.965 47.7283 230.944 47.8845L230.937 47.8774ZM227.909 45.1296C226.764 45.1296 225.963 45.8396 225.78 46.9331H229.89C229.707 45.7544 228.892 45.1296 227.909 45.1296Z" fill="#A9A8A9"/>
<path d="M0 12.7451V13.8172V18.7306V19.8099L24.8627 6.75951V5.68026V1.07925V0L0 12.7451Z" fill="url(#paint0_linear_3618_19983)"/>
<path d="M24.8627 0V1.07925V5.68026V6.75951L50.7791 19.8099V18.7306V13.8172V12.7451L24.8627 0Z" fill="url(#paint1_linear_3618_19983)"/>
<path d="M25.3895 27.5138L31.3611 31L44.8075 23.1897V50.7105L50.7721 47.2243V12.7451L25.3895 27.5138Z" fill="url(#paint2_linear_3618_19983)"/>
<path d="M25.3896 27.5138L19.418 31L5.96451 23.1897V50.7105L0 47.2314V12.7451L25.3825 27.5138H25.3896Z" fill="url(#paint3_linear_3618_19983)"/>
<path d="M25.3896 27.5138L40.1638 36.1336L34.1993 39.6198L25.3896 34.4792L16.5798 39.6198V49.9011L25.3896 55.0417L40.1638 46.4219V53.3874L25.3896 62.0072L10.6153 53.3874V36.1478L25.3896 27.528V27.5138Z" fill="url(#paint4_linear_3618_19983)"/>
<path d="M79.5971 14.2716C77.8618 13.2421 75.9088 12.7167 73.7871 12.7167C71.6655 12.7167 69.6492 13.2421 67.8999 14.2858C66.1576 15.3296 64.7666 16.771 63.769 18.5744C62.7784 20.3779 62.2726 22.3802 62.2726 24.5387C62.2726 26.6972 62.7784 28.6569 63.776 30.432C64.7736 32.2071 66.1576 33.6271 67.8858 34.6567C69.6211 35.6862 71.5741 36.2116 73.6888 36.2116C75.8034 36.2116 77.8267 35.6862 79.576 34.6425C81.3183 33.6058 82.7093 32.1574 83.7069 30.3539C84.7045 28.5504 85.2033 26.541 85.2033 24.3896C85.2033 22.2382 84.6975 20.2714 83.6999 18.4963C82.7023 16.7213 81.3183 15.3012 79.59 14.2716H79.5971ZM81.6344 24.5458C81.6344 26.0511 81.2902 27.4569 80.6157 28.7066C79.9413 29.9563 78.9929 30.9645 77.8056 31.7029C76.6253 32.4414 75.2765 32.8106 73.7871 32.8106C72.2977 32.8106 70.8856 32.4343 69.6984 31.6887C68.497 30.9361 67.5486 29.9137 66.8742 28.6356C66.1927 27.3504 65.8485 25.9233 65.8485 24.3896C65.8485 22.8559 66.1857 21.4714 66.8531 20.2075C67.5205 18.9508 68.4549 17.9354 69.6422 17.197C70.8224 16.4585 72.1853 16.0893 73.6888 16.0893C75.1922 16.0893 76.5621 16.4727 77.7634 17.2254C78.9718 17.9851 79.9272 19.0218 80.6017 20.314C81.2831 21.6134 81.6274 23.0334 81.6274 24.5458H81.6344Z" fill="url(#paint5_linear_3618_19983)"/>
<path d="M108.668 13.874C107.762 14.4846 107.073 15.3154 106.616 16.3307L100.476 29.0616L94.2378 16.2526C93.8093 15.2728 93.1278 14.4633 92.2216 13.8527C91.3083 13.2492 90.2966 12.9368 89.2147 12.9368H88.6035V35.9915H89.2147C90.0016 35.9915 90.676 35.7075 91.224 35.1537C91.7719 34.5998 92.053 33.9111 92.053 33.123V19.4691L99.9354 35.6436L100.49 36.7796L101.038 35.6365L108.886 19.3129V33.123C108.886 33.9111 109.167 34.5998 109.715 35.1537C110.263 35.7075 110.944 35.9915 111.724 35.9915H112.335V12.9368H111.724C110.614 12.9368 109.595 13.2492 108.682 13.8669L108.668 13.874Z" fill="url(#paint6_linear_3618_19983)"/>
<path d="M131.725 12.9368H131.114V29.8213L121.025 15.3509C120.492 14.6053 119.817 14.0089 119.002 13.5829C118.187 13.1498 117.309 12.9368 116.389 12.9368H115.778V33.123C115.778 33.9111 116.059 34.5998 116.607 35.1537C117.162 35.7075 117.836 35.9915 118.616 35.9915H119.227V18.7377L129.66 33.7336C130.144 34.4365 130.784 34.9975 131.549 35.3951C132.315 35.7927 133.137 35.9915 133.994 35.9915H134.605V15.8053C134.605 15.0101 134.317 14.3284 133.755 13.7675C133.193 13.2137 132.519 12.9368 131.739 12.9368H131.725Z" fill="url(#paint7_linear_3618_19983)"/>
<path d="M140.802 12.9368H138.554H137.935V13.5616V35.3738V35.9915H138.554H140.802H141.42V35.3738V13.5616V12.9368H140.802Z" fill="url(#paint8_linear_3618_19983)"/>
<path d="M166.803 26.9884L166.205 26.7683L166.009 27.3789C165.566 28.7422 164.793 30.006 163.711 31.1563C162.686 32.2426 161.112 32.7893 159.033 32.7893C157.543 32.7893 156.194 32.4272 155.014 31.7101C153.827 30.993 152.885 29.9847 152.211 28.7209C151.529 27.4428 151.192 25.9943 151.192 24.3968C151.192 22.7992 151.551 21.3649 152.253 20.1153C152.956 18.8656 153.911 17.8787 155.098 17.1757C156.286 16.4799 157.599 16.1249 159.004 16.1249C160.557 16.1249 161.85 16.4728 162.84 17.1544C163.859 17.8574 164.667 18.7165 165.229 19.7106C165.51 20.1934 165.882 20.5839 166.339 20.8679C166.803 21.159 167.308 21.301 167.828 21.301C168.172 21.301 168.517 21.2371 168.854 21.1022L168.882 21.088L168.91 21.0738L168.973 21.0454L169.409 20.8253L169.297 20.3496C169.008 19.1496 168.439 17.9568 167.589 16.7994C166.739 15.6421 165.58 14.6551 164.147 13.8741C162.707 13.0931 160.993 12.6954 159.068 12.6954C157.016 12.6954 155.084 13.2067 153.328 14.2149C151.572 15.2231 150.16 16.6432 149.134 18.4396C148.108 20.2289 147.588 22.288 147.588 24.553C147.588 26.818 148.101 28.8274 149.106 30.5882C150.117 32.3491 151.501 33.7479 153.223 34.7348C154.944 35.7218 156.869 36.2188 158.941 36.2188C161.014 36.2188 162.742 35.807 164.21 34.9833C165.664 34.1739 166.824 33.1657 167.653 31.9941C168.475 30.8368 169.051 29.6865 169.381 28.5647L169.542 28.0037L169.001 27.8049L166.81 26.9955L166.803 26.9884Z" fill="url(#paint9_linear_3618_19983)"/>
<path d="M182.251 13.3131L181.703 12.1913L181.155 13.3131L170.414 35.1253L169.971 36.02H173.814L173.982 35.672L181.675 19.9803L185.16 27.102H181.886C180.987 27.1304 180.263 27.3789 179.729 27.8475C179.237 28.2735 178.858 28.7421 178.598 29.2463L178.458 29.5658L178.071 30.4391H186.818L189.396 35.6791L189.565 36.0271H193.407L192.965 35.1324L182.251 13.3202V13.3131Z" fill="url(#paint10_linear_3618_19983)"/>
<path d="M207.268 26.5766C208.667 26.25 209.868 25.6038 210.844 24.6524C212.074 23.4524 212.699 21.8549 212.699 19.9023C212.699 18.6313 212.397 17.4598 211.8 16.4089C211.196 15.351 210.261 14.4918 209.025 13.867C207.809 13.2564 206.292 12.944 204.522 12.944H196.435V35.9987H199.92V16.3379H204.367C206.109 16.3379 207.367 16.6929 208.097 17.3888C208.828 18.0846 209.186 18.9366 209.186 19.9946C209.186 21.0525 208.8 21.933 208.006 22.6927C207.212 23.4524 205.976 23.8359 204.339 23.8359H204.002C203.566 23.8359 203.18 23.9992 202.892 24.3116C202.611 24.6098 202.463 24.9861 202.463 25.3908C202.463 25.7174 202.569 26.0157 202.772 26.2926L203.327 27.0381L207.985 33.4923C208.554 34.2733 209.271 34.8911 210.114 35.3313C210.957 35.7715 211.884 35.9916 212.861 35.9916H214.069L213.359 35.0047L207.276 26.5766H207.268Z" fill="url(#paint11_linear_3618_19983)"/>
<path d="M230.389 32.6261H219.64V25.9731H225.879C226.623 25.9731 227.263 25.7032 227.782 25.1636C228.295 24.6311 228.555 23.9779 228.555 23.2323V22.6146H219.633V16.3095H230.902V12.944H216.148V35.9987H230.993V32.6332H230.382L230.389 32.6261Z" fill="url(#paint12_linear_3618_19983)"/>
</g>
<defs>
<linearGradient id="paint0_linear_3618_19983" x1="0.0210758" y1="15.7627" x2="21.3248" y2="5.91761" gradientUnits="userSpaceOnUse">
<stop stop-color="#EF3E23"/>
<stop offset="1" stop-color="#F7901E"/>
</linearGradient>
<linearGradient id="paint1_linear_3618_19983" x1="22.0525" y1="1.01535" x2="42.7866" y2="12.2613" gradientUnits="userSpaceOnUse">
<stop stop-color="#EF3E23"/>
<stop offset="1" stop-color="#F7901E"/>
</linearGradient>
<linearGradient id="paint2_linear_3618_19983" x1="53.5119" y1="7.41988" x2="38.1822" y2="36.5541" gradientUnits="userSpaceOnUse">
<stop stop-color="#EF3E23"/>
<stop offset="1" stop-color="#F7901E"/>
</linearGradient>
<linearGradient id="paint3_linear_3618_19983" x1="12.6948" y1="52.5779" x2="12.6948" y2="23.282" gradientUnits="userSpaceOnUse">
<stop stop-color="#EF3E23"/>
<stop offset="1" stop-color="#F7901E"/>
</linearGradient>
<linearGradient id="paint4_linear_3618_19983" x1="25.3896" y1="63.6047" x2="25.3896" y2="35.5301" gradientUnits="userSpaceOnUse">
<stop stop-color="#387EC1"/>
<stop offset="1" stop-color="#37C6F4"/>
</linearGradient>
<linearGradient id="paint5_linear_3618_19983" x1="73.745" y1="36.4601" x2="73.745" y2="13.7675" gradientUnits="userSpaceOnUse">
<stop stop-color="#EF3E23"/>
<stop offset="1" stop-color="#F7901E"/>
</linearGradient>
<linearGradient id="paint6_linear_3618_19983" x1="100.455" y1="36.4601" x2="100.455" y2="13.7675" gradientUnits="userSpaceOnUse">
<stop stop-color="#EF3E23"/>
<stop offset="1" stop-color="#F7901E"/>
</linearGradient>
<linearGradient id="paint7_linear_3618_19983" x1="125.184" y1="36.4601" x2="125.184" y2="13.7675" gradientUnits="userSpaceOnUse">
<stop stop-color="#EF3E23"/>
<stop offset="1" stop-color="#F7901E"/>
</linearGradient>
<linearGradient id="paint8_linear_3618_19983" x1="139.678" y1="36.4601" x2="139.678" y2="13.7675" gradientUnits="userSpaceOnUse">
<stop stop-color="#EF3E23"/>
<stop offset="1" stop-color="#F7901E"/>
</linearGradient>
<linearGradient id="paint9_linear_3618_19983" x1="158.555" y1="36.2117" x2="158.555" y2="15.5711" gradientUnits="userSpaceOnUse">
<stop stop-color="#387EC1"/>
<stop offset="1" stop-color="#37C6F4"/>
</linearGradient>
<linearGradient id="paint10_linear_3618_19983" x1="181.682" y1="36.2259" x2="181.682" y2="15.5781" gradientUnits="userSpaceOnUse">
<stop stop-color="#387EC1"/>
<stop offset="1" stop-color="#37C6F4"/>
</linearGradient>
<linearGradient id="paint11_linear_3618_19983" x1="205.252" y1="36.2259" x2="205.252" y2="15.5782" gradientUnits="userSpaceOnUse">
<stop stop-color="#387EC1"/>
<stop offset="1" stop-color="#37C6F4"/>
</linearGradient>
<linearGradient id="paint12_linear_3618_19983" x1="223.581" y1="36.2259" x2="223.581" y2="15.5782" gradientUnits="userSpaceOnUse">
<stop stop-color="#387EC1"/>
<stop offset="1" stop-color="#37C6F4"/>
</linearGradient>
<clipPath id="clip0_3618_19983">
<rect width="231" height="62" fill="white"/>
</clipPath>
</defs>
</svg>
