<svg width="24" height="24" viewBox="0 0 24 24" fill="none" xmlns="http://www.w3.org/2000/svg">
<path fill-rule="evenodd" clip-rule="evenodd" d="M10.3549 5H13.6451C15.1153 4.99999 16.2798 4.99998 17.1912 5.12251C18.1292 5.24861 18.8883 5.5143 19.487 6.11299C20.0857 6.71169 20.3514 7.47084 20.4775 8.40878C20.6 9.32015 20.6 10.4847 20.6 11.9549V12.0451C20.6 13.5153 20.6 14.6798 20.4775 15.5912C20.3514 16.5292 20.0857 17.2883 19.487 17.887C18.8883 18.4857 18.1292 18.7514 17.1912 18.8775C16.2798 19 15.1153 19 13.6451 19H10.3549C8.88466 19 7.72016 19 6.80878 18.8775C5.87085 18.7514 5.11169 18.4857 4.513 17.887C3.91431 17.2883 3.64861 16.5292 3.52251 15.5912C3.39998 14.6798 3.39999 13.5153 3.4 12.0451V11.9549C3.39999 10.4847 3.39998 9.32015 3.52251 8.40878C3.64861 7.47084 3.91431 6.71169 4.513 6.11299C5.11169 5.5143 5.87085 5.24861 6.80878 5.12251C7.72015 4.99998 8.88466 4.99999 10.3549 5ZM6.96868 6.31181C6.16381 6.42002 5.70009 6.62296 5.36152 6.96152C5.02296 7.30009 4.82002 7.76381 4.71181 8.56868C4.60128 9.39081 4.6 10.4745 4.6 12C4.6 13.5255 4.60128 14.6092 4.71181 15.4313C4.82002 16.2362 5.02296 16.6999 5.36152 17.0385C5.70009 17.377 6.16381 17.58 6.96868 17.6882C7.79081 17.7987 8.87455 17.8 10.4 17.8H13.6C15.1255 17.8 16.2092 17.7987 17.0313 17.6882C17.8362 17.58 18.2999 17.377 18.6385 17.0385C18.977 16.6999 19.18 16.2362 19.2882 15.4313C19.3987 14.6092 19.4 13.5255 19.4 12C19.4 10.4745 19.3987 9.39081 19.2882 8.56868C19.18 7.76381 18.977 7.30009 18.6385 6.96152C18.2999 6.62296 17.8362 6.42002 17.0313 6.31181C16.2092 6.20127 15.1255 6.2 13.6 6.2H10.4C8.87455 6.2 7.79081 6.20127 6.96868 6.31181ZM6.73907 8.41589C6.95121 8.16132 7.32955 8.12693 7.58411 8.33907L9.31123 9.77833C10.0576 10.4003 10.5758 10.8307 11.0133 11.1121C11.4368 11.3845 11.7239 11.4759 12 11.4759C12.2761 11.4759 12.5632 11.3845 12.9867 11.1121C13.4242 10.8307 13.9424 10.4003 14.6888 9.77833L16.4159 8.33907C16.6705 8.12693 17.0488 8.16132 17.2609 8.41589C17.4731 8.67046 17.4387 9.0488 17.1841 9.26093L15.4269 10.7253C14.7178 11.3162 14.1431 11.7951 13.6359 12.1214C13.1075 12.4612 12.5929 12.6759 12 12.6759C11.4071 12.6759 10.8925 12.4612 10.3641 12.1214C9.8569 11.7951 9.28217 11.3162 8.57309 10.7253L6.81589 9.26093C6.56132 9.04879 6.52693 8.67046 6.73907 8.41589Z" fill="#5F5E5E"/>
</svg>
