<svg width="16" height="13" viewBox="0 0 16 13" fill="none" xmlns="http://www.w3.org/2000/svg">
<path d="M0.5 6.4C0.5 4.87737 0.501062 3.7857 0.612699 2.95535C0.722402 2.13939 0.930567 1.65106 1.29081 1.29081C1.65106 0.930567 2.13939 0.722402 2.95535 0.612699C3.7857 0.501062 4.87737 0.5 6.4 0.5H9.6C11.1226 0.5 12.2143 0.501062 13.0446 0.612699C13.8606 0.722402 14.3489 0.930567 14.7092 1.29081C15.0694 1.65106 15.2776 2.13939 15.3873 2.95535C15.4989 3.7857 15.5 4.87737 15.5 6.4C15.5 7.92263 15.4989 9.0143 15.3873 9.84464C15.2776 10.6606 15.0694 11.1489 14.7092 11.5092C14.3489 11.8694 13.8606 12.0776 13.0446 12.1873C12.2143 12.2989 11.1226 12.3 9.6 12.3H6.4C4.87737 12.3 3.7857 12.2989 2.95535 12.1873C2.13939 12.0776 1.65106 11.8694 1.29081 11.5092C0.930567 11.1489 0.722402 10.6606 0.612699 9.84464C0.501062 9.0143 0.5 7.92263 0.5 6.4Z" stroke="#4381C5"/>
<path d="M3.19983 3.19995L4.92695 4.63922C6.39625 5.86364 7.13091 6.47585 7.99983 6.47585C8.86875 6.47585 9.6034 5.86364 11.0727 4.63921L12.7998 3.19995" stroke="#4381C5" stroke-linecap="round"/>
</svg>
