<svg width="16" height="17" viewBox="0 0 16 17" fill="none" xmlns="http://www.w3.org/2000/svg">
<mask id="path-1-inside-1_3662_12534" fill="white">
<path d="M7.30301 16.0575L7.09546 16.4082C6.78623 16.9306 6.01374 16.9306 5.70452 16.4082L5.49697 16.0575C5.16434 15.4956 4.99803 15.2146 4.7331 15.0579C4.46817 14.9012 4.12259 14.8901 3.43144 14.868C2.78339 14.8473 2.34783 14.7907 1.97541 14.6365C1.19132 14.3117 0.568366 13.6887 0.243585 12.9046C0 12.3166 0 11.571 0 10.08V9.44002C0 7.34502 0 6.29752 0.471552 5.52801C0.73541 5.09743 1.09743 4.73541 1.528 4.47155C2.29751 4 3.345 4 5.44 4H7.36C9.455 4 10.5025 4 11.272 4.47155C11.7026 4.73541 12.0646 5.09743 12.3284 5.52801C12.8 6.29752 12.8 7.34502 12.8 9.44002V10.08C12.8 11.571 12.8 12.3166 12.5564 12.9046C12.2316 13.6887 11.6087 14.3117 10.8246 14.6365C10.4522 14.7907 10.0166 14.8473 9.36853 14.868C8.67738 14.8901 8.33181 14.9012 8.06687 15.0579C7.80194 15.2146 7.63563 15.4956 7.30301 16.0575Z"/>
</mask>
<path d="M7.09546 16.4082L7.95601 16.9175L7.09546 16.4082ZM7.30301 16.0575L6.44245 15.5482L6.44245 15.5482L7.30301 16.0575ZM5.49697 16.0575L6.35752 15.5482L6.35752 15.5482L5.49697 16.0575ZM5.70452 16.4082L4.84396 16.9175L4.84396 16.9175L5.70452 16.4082ZM0.243585 12.9046L1.16747 12.5219H1.16747L0.243585 12.9046ZM3.43144 14.868L3.46341 13.8685H3.46341L3.43144 14.868ZM1.97541 14.6365L1.59273 15.5603L1.59273 15.5603L1.97541 14.6365ZM12.5564 12.9046L13.4803 13.2873V13.2873L12.5564 12.9046ZM9.36853 14.868L9.33656 13.8685L9.36853 14.868ZM10.8246 14.6365L11.2073 15.5603L10.8246 14.6365ZM11.272 4.47155L11.7945 3.61891V3.61891L11.272 4.47155ZM12.3284 5.52801L13.1811 5.00551V5.00551L12.3284 5.52801ZM1.528 4.47155L1.0055 3.61891V3.61891L1.528 4.47155ZM0.471552 5.52801L-0.38109 5.00551L-0.38109 5.00551L0.471552 5.52801ZM4.7331 15.0579L4.22398 15.9186L4.22398 15.9186L4.7331 15.0579ZM7.95601 16.9175L8.16356 16.5669L6.44245 15.5482L6.2349 15.8988L7.95601 16.9175ZM4.63641 16.5669L4.84396 16.9175L6.56507 15.8988L6.35752 15.5482L4.63641 16.5669ZM6.2349 15.8988C6.27744 15.827 6.35202 15.8 6.39999 15.8C6.44795 15.8 6.52254 15.827 6.56507 15.8988L4.84396 16.9175C5.5404 18.0942 7.25957 18.0942 7.95601 16.9175L6.2349 15.8988ZM5.44 5H7.36V3H5.44V5ZM11.8 9.44002V10.08H13.8V9.44002H11.8ZM1 10.08V9.44002H-1V10.08H1ZM-1 10.08C-1 10.8119 -1.00054 11.4108 -0.967232 11.899C-0.93331 12.3962 -0.86097 12.8511 -0.680295 13.2873L1.16747 12.5219C1.10456 12.3701 1.0551 12.1582 1.02813 11.7629C1.00054 11.3585 1 10.8392 1 10.08H-1ZM3.46341 13.8685C2.8391 13.8485 2.5554 13.7943 2.3581 13.7126L1.59273 15.5603C2.14027 15.7871 2.72767 15.846 3.39948 15.8675L3.46341 13.8685ZM-0.680295 13.2873C-0.254021 14.3164 0.56361 15.1341 1.59273 15.5603L2.3581 13.7126C1.81904 13.4893 1.39075 13.061 1.16747 12.5219L-0.680295 13.2873ZM11.8 10.08C11.8 10.8392 11.7995 11.3585 11.7719 11.7629C11.7449 12.1582 11.6954 12.3701 11.6325 12.5219L13.4803 13.2873C13.661 12.8511 13.7333 12.3962 13.7672 11.899C13.8005 11.4108 13.8 10.8119 13.8 10.08H11.8ZM9.4005 15.8675C10.0723 15.846 10.6597 15.7871 11.2073 15.5603L10.4419 13.7126C10.2446 13.7943 9.96089 13.8485 9.33656 13.8685L9.4005 15.8675ZM11.6325 12.5219C11.4092 13.061 10.981 13.4893 10.4419 13.7126L11.2073 15.5603C12.2364 15.1341 13.054 14.3164 13.4803 13.2873L11.6325 12.5219ZM7.36 5C8.42686 5 9.15678 5.00106 9.7184 5.05445C10.2651 5.10644 10.5483 5.20088 10.7495 5.32419L11.7945 3.61891C11.2262 3.27067 10.6008 3.12934 9.90771 3.06343C9.22946 2.99894 8.38813 3 7.36 3V5ZM13.8 9.44002C13.8 8.41188 13.8011 7.57056 13.7366 6.8923C13.6707 6.19916 13.5293 5.5738 13.1811 5.00551L11.4758 6.05051C11.5991 6.25173 11.6936 6.53487 11.7455 7.08161C11.7989 7.64323 11.8 8.37316 11.8 9.44002H13.8ZM10.7495 5.32419C11.0455 5.5056 11.2944 5.75448 11.4758 6.05051L13.1811 5.00551C12.8348 4.44038 12.3596 3.96523 11.7945 3.61891L10.7495 5.32419ZM5.44 3C4.41187 3 3.57054 2.99894 2.89229 3.06343C2.19915 3.12934 1.57379 3.27067 1.0055 3.61891L2.0505 5.32419C2.25172 5.20088 2.53486 5.10644 3.0816 5.05445C3.64322 5.00106 4.37314 5 5.44 5V3ZM1 9.44002C1 8.37316 1.00106 7.64323 1.05445 7.08161C1.10644 6.53487 1.20088 6.25173 1.32419 6.05051L-0.38109 5.00551C-0.729332 5.5738 -0.870663 6.19916 -0.936566 6.8923C-1.00106 7.57056 -1 8.41188 -1 9.44002H1ZM1.0055 3.61891C0.440371 3.96523 -0.034776 4.44038 -0.38109 5.00551L1.32419 6.05051C1.5056 5.75448 1.75448 5.5056 2.0505 5.32419L1.0055 3.61891ZM6.35752 15.5482C6.20066 15.2831 6.04898 15.0249 5.89874 14.8181C5.73664 14.5949 5.53399 14.3698 5.24222 14.1972L4.22398 15.9186C4.19714 15.9027 4.21011 15.8964 4.28055 15.9934C4.36287 16.1067 4.46066 16.27 4.63642 16.5669L6.35752 15.5482ZM3.39947 15.8675C3.76302 15.8791 3.96989 15.8867 4.12102 15.9051C4.25641 15.9216 4.25698 15.9381 4.22398 15.9186L5.24222 14.1972C4.94429 14.0209 4.63961 13.9535 4.36319 13.9198C4.10251 13.888 3.79102 13.879 3.46341 13.8685L3.39947 15.8675ZM8.16356 16.5669C8.33932 16.27 8.43711 16.1067 8.51942 15.9934C8.58986 15.8964 8.60283 15.9027 8.576 15.9186L7.55775 14.1972C7.26599 14.3698 7.06334 14.5949 6.90123 14.8181C6.751 15.0249 6.59932 15.2831 6.44245 15.5482L8.16356 16.5669ZM9.33656 13.8685C9.00896 13.879 8.69746 13.888 8.43679 13.9198C8.16037 13.9535 7.85569 14.0209 7.55775 14.1972L8.576 15.9186C8.54299 15.9381 8.54356 15.9216 8.67895 15.9051C8.83008 15.8867 9.03695 15.8791 9.4005 15.8675L9.33656 13.8685Z" fill="#4381C5" mask="url(#path-1-inside-1_3662_12534)"/>
<path d="M14.7716 10.1481L15.2336 10.3395V10.3395L14.7716 10.1481ZM13.1481 11.7717L13.3394 12.2337L13.3394 12.2337L13.1481 11.7717ZM13.5675 2.24213L13.3063 2.66845V2.66845L13.5675 2.24213ZM14.5579 3.23256L14.9842 2.97131L14.9842 2.97131L14.5579 3.23256ZM4.43251 2.24213L4.17126 1.81581V1.81581L4.43251 2.24213ZM3.44209 3.23256L3.01577 2.97131H3.01577L3.44209 3.23256ZM8.10001 2.30005H9.90001V1.30005H8.10001V2.30005ZM14.5 6.90007V7.50007H15.5V6.90007H14.5ZM14.5 7.50007C14.5 8.20583 14.4997 8.71011 14.4726 9.10751C14.4458 9.50043 14.3944 9.75221 14.3097 9.95679L15.2336 10.3395C15.3772 9.99274 15.44 9.61941 15.4703 9.17558C15.5003 8.73624 15.5 8.19215 15.5 7.50007H14.5ZM14.3097 9.95679C14.056 10.5694 13.5693 11.0561 12.9567 11.3098L13.3394 12.2337C14.197 11.8784 14.8784 11.1971 15.2336 10.3395L14.3097 9.95679ZM9.90001 2.30005C10.8917 2.30005 11.6004 2.30058 12.1524 2.35306C12.697 2.40484 13.0373 2.50364 13.3063 2.66845L13.8288 1.81581C13.3763 1.53854 12.8649 1.41629 12.2471 1.35755C11.6367 1.29952 10.8724 1.30005 9.90001 1.30005V2.30005ZM15.5 6.90007C15.5 5.92772 15.5005 5.16334 15.4425 4.55299C15.3838 3.9352 15.2615 3.42378 14.9842 2.97131L14.1316 3.49381C14.2964 3.76275 14.3952 4.10305 14.447 4.64765C14.4995 5.19968 14.5 5.90836 14.5 6.90007H15.5ZM13.3063 2.66845C13.6426 2.87459 13.9255 3.15742 14.1316 3.49381L14.9842 2.97131C14.6957 2.50036 14.2997 2.10441 13.8288 1.81581L13.3063 2.66845ZM8.10001 1.30005C7.12766 1.30005 6.36329 1.29952 5.75294 1.35755C5.13515 1.41629 4.62373 1.53854 4.17126 1.81581L4.69376 2.66845C4.9627 2.50364 5.303 2.40484 5.84759 2.35306C6.39962 2.30058 7.1083 2.30005 8.10001 2.30005V1.30005ZM4.17126 1.81581C3.70032 2.10441 3.30436 2.50036 3.01577 2.97131L3.86841 3.49381C4.07455 3.15742 4.35737 2.87459 4.69376 2.66845L4.17126 1.81581ZM3.52594 5.02602C3.56612 4.25348 3.66696 3.82255 3.86841 3.49381L3.01577 2.97131C2.67954 3.51998 2.56967 4.15921 2.52729 4.97408L3.52594 5.02602ZM11.8167 12.488C12.4275 12.4677 12.9066 12.4129 13.3394 12.2337L12.9567 11.3098C12.6977 11.4171 12.369 11.4691 11.7834 11.4885L11.8167 12.488Z" fill="#4381C5"/>
<path d="M3.90005 9.60005C3.90005 9.76573 3.76573 9.90005 3.60005 9.90005C3.43436 9.90005 3.30005 9.76573 3.30005 9.60005C3.30005 9.43436 3.43436 9.30005 3.60005 9.30005C3.76573 9.30005 3.90005 9.43436 3.90005 9.60005ZM6.70005 9.60005C6.70005 9.76573 6.56573 9.90005 6.40005 9.90005C6.23436 9.90005 6.10005 9.76573 6.10005 9.60005C6.10005 9.43436 6.23436 9.30005 6.40005 9.30005C6.56573 9.30005 6.70005 9.43436 6.70005 9.60005ZM9.50005 9.60005C9.50005 9.76573 9.36573 9.90005 9.20005 9.90005C9.03436 9.90005 8.90005 9.76573 8.90005 9.60005C8.90005 9.43436 9.03436 9.30005 9.20005 9.30005C9.36573 9.30005 9.50005 9.43436 9.50005 9.60005Z" stroke="#4381C5"/>
</svg>
