<svg width="16" height="17" viewBox="0 0 16 17" fill="none" xmlns="http://www.w3.org/2000/svg">
<path d="M10.5255 11.0391L10.5258 11.0389L10.5258 11.0389C10.5258 11.0388 10.5258 11.0388 10.5258 11.0388C10.5259 11.0388 10.5259 11.0388 10.5259 11.0388C11.3089 10.2558 12.4452 10.0857 13.2772 10.5501L14.4402 11.1991C15.684 11.8932 15.9108 13.7071 14.7092 14.9087C13.9133 15.7046 13.001 16.2577 12.048 16.2939C10.255 16.3618 7.15769 15.9152 4.02126 12.7788C0.88482 9.64235 0.438223 6.54502 0.506193 4.75208C0.542321 3.79906 1.09546 2.88673 1.89136 2.09083C3.0929 0.889297 4.90683 1.11608 5.60098 2.35988L6.24999 3.52281C6.71438 4.35492 6.54419 5.49126 5.76116 6.27429L5.76116 6.2743L5.76115 6.2743C5.71468 6.32077 5.34397 6.7111 5.30943 7.41654C5.27427 8.13454 5.59272 9.05084 6.67096 10.1291C7.74885 11.207 8.66491 11.5256 9.38283 11.4906C10.0883 11.4563 10.4788 11.0858 10.5255 11.0391Z" stroke="#4381C5" stroke-linecap="round"/>
</svg>
