<svg width="32" height="32" viewBox="0 0 32 32" fill="none" xmlns="http://www.w3.org/2000/svg">
<path d="M13.7364 7.73326C14.0662 6.80002 14.9563 6.13333 16 6.13333C17.0437 6.13333 17.9338 6.80002 18.2636 7.73326C18.4109 8.14983 18.8679 8.36817 19.2845 8.22093C19.7011 8.07369 19.9194 7.61663 19.7722 7.20006C19.2235 5.64755 17.7429 4.53333 16 4.53333C14.2571 4.53333 12.7765 5.64755 12.2278 7.20006C12.0806 7.61663 12.2989 8.07369 12.7155 8.22093C13.1321 8.36817 13.5891 8.14983 13.7364 7.73326Z" fill="white"/>
<path d="M6.1333 9.59999C6.1333 9.15816 6.49147 8.79999 6.9333 8.79999H25.0667C25.5086 8.79999 25.8667 9.15816 25.8667 9.59999C25.8667 10.0418 25.5086 10.4 25.0667 10.4H6.9333C6.49147 10.4 6.1333 10.0418 6.1333 9.59999Z" fill="white"/>
<path d="M8.65795 11.4684C9.0988 11.439 9.48 11.7726 9.50939 12.2134L10 19.5725C10.0958 21.0102 10.1641 22.0105 10.3141 22.7632C10.4595 23.4933 10.6625 23.8797 10.9542 24.1526C11.2458 24.4254 11.6449 24.6023 12.3831 24.6988C13.144 24.7984 14.1467 24.8 15.5876 24.8H16.4125C17.8534 24.8 18.8561 24.7984 19.617 24.6988C20.3552 24.6023 20.7543 24.4254 21.0459 24.1526C21.3376 23.8797 21.5406 23.4933 21.686 22.7632C21.836 22.0105 21.9043 21.0102 22.0001 19.5725L22.4907 12.2134C22.5201 11.7726 22.9013 11.439 23.3422 11.4684C23.783 11.4978 24.1166 11.879 24.0872 12.3199L23.5928 19.7351C23.5016 21.1033 23.428 22.2085 23.2552 23.0758C23.0756 23.9775 22.7701 24.7306 22.139 25.321C21.508 25.9113 20.7362 26.1661 19.8246 26.2853C18.9477 26.4 17.8401 26.4 16.4688 26.4H15.5313C14.16 26.4 13.0524 26.4 12.1755 26.2853C11.2639 26.1661 10.4921 25.9113 9.86109 25.321C9.23005 24.7306 8.92454 23.9775 8.74491 23.0758C8.57214 22.2085 8.49848 21.1033 8.40728 19.7351L7.91294 12.3199C7.88355 11.879 8.2171 11.4978 8.65795 11.4684Z" fill="white"/>
</svg>
