<svg width="24" height="24" viewBox="0 0 24 24" fill="none" xmlns="http://www.w3.org/2000/svg">
<path fill-rule="evenodd" clip-rule="evenodd" d="M12 3.40002C9.90131 3.40002 8.19999 5.10134 8.19999 7.20002C8.19999 9.29871 9.90131 11 12 11C14.0987 11 15.8 9.29871 15.8 7.20002C15.8 5.10134 14.0987 3.40002 12 3.40002ZM9.39999 7.20002C9.39999 5.76408 10.564 4.60002 12 4.60002C13.4359 4.60002 14.6 5.76408 14.6 7.20002C14.6 8.63596 13.4359 9.80002 12 9.80002C10.564 9.80002 9.39999 8.63596 9.39999 7.20002Z" fill="#484747"/>
<path fill-rule="evenodd" clip-rule="evenodd" d="M12 12.2C10.3685 12.2 8.862 12.5766 7.74251 13.2163C6.63999 13.8463 5.79999 14.8081 5.79999 16C5.79999 17.1919 6.63999 18.1537 7.74251 18.7837C8.862 19.4234 10.3685 19.8 12 19.8C13.6315 19.8 15.138 19.4234 16.2575 18.7837C17.36 18.1537 18.2 17.1919 18.2 16C18.2 14.8081 17.36 13.8463 16.2575 13.2163C15.138 12.5766 13.6315 12.2 12 12.2ZM6.99999 16C6.99999 15.4246 7.41359 14.7864 8.33787 14.2582C9.24518 13.7398 10.5387 13.4 12 13.4C13.4613 13.4 14.7548 13.7398 15.6621 14.2582C16.5864 14.7864 17 15.4246 17 16C17 16.5754 16.5864 17.2137 15.6621 17.7418C14.7548 18.2603 13.4613 18.6 12 18.6C10.5387 18.6 9.24518 18.2603 8.33787 17.7418C7.41359 17.2137 6.99999 16.5754 6.99999 16Z" fill="#484747"/>
</svg>
