<svg width="24" height="24" viewBox="0 0 24 24" fill="none" xmlns="http://www.w3.org/2000/svg">
<circle cx="9.6" cy="9.6" r="1.6" stroke="#5F5E5E"/>
<path d="M12.8 14.4C12.8 15.2837 12.8 16 9.60002 16C6.40002 16 6.40002 15.2837 6.40002 14.4C6.40002 13.5164 7.83271 12.8 9.60002 12.8C11.3673 12.8 12.8 13.5164 12.8 14.4Z" stroke="#5F5E5E"/>
<path d="M4 12C4 8.98299 4 7.47449 4.93726 6.53723C5.87452 5.59998 7.38301 5.59998 10.4 5.59998H13.6C16.617 5.59998 18.1255 5.59998 19.0627 6.53723C20 7.47449 20 8.98299 20 12C20 15.017 20 16.5255 19.0627 17.4627C18.1255 18.4 16.617 18.4 13.6 18.4H10.4C7.38301 18.4 5.87452 18.4 4.93726 17.4627C4 16.5255 4 15.017 4 12Z" stroke="#5F5E5E"/>
<path d="M17.6 12H14.4" stroke="#5F5E5E" stroke-linecap="round"/>
<path d="M17.6 9.59998H13.6" stroke="#5F5E5E" stroke-linecap="round"/>
<path d="M17.6 14.4H15.2" stroke="#5F5E5E" stroke-linecap="round"/>
</svg>
