<svg width="17" height="14" viewBox="0 0 17 14" fill="none" xmlns="http://www.w3.org/2000/svg">
<path d="M7.05247 2.15763C7.56609 2.0219 8.11152 1.94444 8.6875 1.94444C13.3409 1.94444 16 7 16 7C16 7 15.3938 8.15251 14.2538 9.35697M3.09279 4.67316C1.97112 5.86664 1.375 7 1.375 7C1.375 7 4.03409 12.0556 8.6875 12.0556C9.27401 12.0556 9.82885 11.9752 10.3507 11.8349M8.32187 9.13671C7.52907 9.00534 6.88046 8.454 6.61858 7.72222M9.05312 4.86329C9.97176 5.01551 10.6968 5.7316 10.8509 6.63889M2.10625 0.5L15.2687 13.5" stroke="#949CA9" stroke-linecap="round" stroke-linejoin="round"/>
</svg>
