<svg width="25" height="24" viewBox="0 0 25 24" fill="none" xmlns="http://www.w3.org/2000/svg">
<path fill-rule="evenodd" clip-rule="evenodd" d="M7.84884 2C8.23415 2 8.54651 2.31236 8.54651 2.69767V3.40718C9.16232 3.39534 9.84077 3.39534 10.5869 3.39535H14.4129C15.1591 3.39534 15.8377 3.39534 16.4535 3.40718V2.69767C16.4535 2.31236 16.7658 2 17.1512 2C17.5365 2 17.8488 2.31236 17.8488 2.69767V3.46706C18.0906 3.48549 18.3196 3.50867 18.5363 3.5378C19.6269 3.68443 20.5097 3.99338 21.2058 4.68953C21.902 5.38568 22.2109 6.26842 22.3575 7.35905C22.5 8.41877 22.5 9.77284 22.5 11.4824V13.4478C22.5 15.1573 22.5 16.5115 22.3575 17.5712C22.2109 18.6618 21.902 19.5445 21.2058 20.2407C20.5097 20.9369 19.6269 21.2458 18.5363 21.3924C17.4766 21.5349 16.1225 21.5349 14.413 21.5349H10.5871C8.87753 21.5349 7.52343 21.5349 6.4637 21.3924C5.37308 21.2458 4.49033 20.9369 3.79418 20.2407C3.09803 19.5445 2.78908 18.6618 2.64245 17.5712C2.49997 16.5114 2.49999 15.1574 2.5 13.4478V11.4824C2.49999 9.77286 2.49997 8.41878 2.64245 7.35905C2.78908 6.26842 3.09803 5.38568 3.79418 4.68953C4.49033 3.99338 5.37308 3.68443 6.4637 3.5378C6.68038 3.50867 6.90936 3.48549 7.15116 3.46706V2.69767C7.15116 2.31236 7.46352 2 7.84884 2ZM6.64963 4.92071C5.71373 5.04653 5.17452 5.2825 4.78084 5.67619C4.38716 6.06987 4.15119 6.60908 4.02536 7.54497C4.00405 7.70347 3.98623 7.87033 3.97133 8.04651H21.0287C21.0138 7.87033 20.996 7.70347 20.9746 7.54498C20.8488 6.60908 20.6128 6.06987 20.2192 5.67619C19.8255 5.2825 19.2863 5.04653 18.3504 4.92071C17.3944 4.79218 16.1343 4.7907 14.3605 4.7907H10.6395C8.86575 4.7907 7.60559 4.79218 6.64963 4.92071ZM3.89535 11.5349C3.89535 10.7405 3.89565 10.049 3.90752 9.44186H21.0925C21.1044 10.049 21.1047 10.7405 21.1047 11.5349V13.3953C21.1047 15.1691 21.1032 16.4293 20.9746 17.3853C20.8488 18.3212 20.6128 18.8604 20.2192 19.254C19.8255 19.6477 19.2863 19.8837 18.3504 20.0095C17.3944 20.1381 16.1343 20.1395 14.3605 20.1395H10.6395C8.86575 20.1395 7.60559 20.1381 6.64963 20.0095C5.71373 19.8837 5.17452 19.6477 4.78084 19.254C4.38716 18.8604 4.15119 18.3212 4.02536 17.3853C3.89683 16.4293 3.89535 15.1691 3.89535 13.3953V11.5349Z" fill="black"/>
<path d="M9.5 14L11 12.5V16.5" stroke="black" stroke-width="1.5" stroke-linecap="round" stroke-linejoin="round"/>
<path d="M13.5 15.5V13.5C13.5 12.9477 13.9477 12.5 14.5 12.5C15.0523 12.5 15.5 12.9477 15.5 13.5V15.5C15.5 16.0523 15.0523 16.5 14.5 16.5C13.9477 16.5 13.5 16.0523 13.5 15.5Z" stroke="black" stroke-width="1.5" stroke-linecap="round"/>
</svg>
