<svg width="25" height="24" viewBox="0 0 25 24" fill="none" xmlns="http://www.w3.org/2000/svg">
<path d="M16.9512 13.3953C17.465 13.3953 17.8814 12.9789 17.8814 12.4651C17.8814 11.9514 17.465 11.5349 16.9512 11.5349C16.4375 11.5349 16.021 11.9514 16.021 12.4651C16.021 12.9789 16.4375 13.3953 16.9512 13.3953Z" fill="black"/>
<path d="M16.9512 17.1163C17.465 17.1163 17.8814 16.6998 17.8814 16.186C17.8814 15.6723 17.465 15.2558 16.9512 15.2558C16.4375 15.2558 16.021 15.6723 16.021 16.186C16.021 16.6998 16.4375 17.1163 16.9512 17.1163Z" fill="black"/>
<path d="M13.2303 12.4651C13.2303 12.9789 12.8138 13.3953 12.3 13.3953C11.7863 13.3953 11.3698 12.9789 11.3698 12.4651C11.3698 11.9514 11.7863 11.5349 12.3 11.5349C12.8138 11.5349 13.2303 11.9514 13.2303 12.4651Z" fill="black"/>
<path d="M13.2303 16.186C13.2303 16.6998 12.8138 17.1163 12.3 17.1163C11.7863 17.1163 11.3698 16.6998 11.3698 16.186C11.3698 15.6723 11.7863 15.2558 12.3 15.2558C12.8138 15.2558 13.2303 15.6723 13.2303 16.186Z" fill="black"/>
<path d="M7.64889 13.3953C8.16264 13.3953 8.57912 12.9789 8.57912 12.4651C8.57912 11.9514 8.16264 11.5349 7.64889 11.5349C7.13513 11.5349 6.71865 11.9514 6.71865 12.4651C6.71865 12.9789 7.13513 13.3953 7.64889 13.3953Z" fill="black"/>
<path d="M7.64889 17.1163C8.16264 17.1163 8.57912 16.6998 8.57912 16.186C8.57912 15.6723 8.16264 15.2558 7.64889 15.2558C7.13513 15.2558 6.71865 15.6723 6.71865 16.186C6.71865 16.6998 7.13513 17.1163 7.64889 17.1163Z" fill="black"/>
<path fill-rule="evenodd" clip-rule="evenodd" d="M7.64889 2C8.0342 2 8.34656 2.31236 8.34656 2.69767V3.40718C8.96237 3.39534 9.64082 3.39534 10.387 3.39535H14.213C14.9592 3.39534 15.6377 3.39534 16.2535 3.40718V2.69767C16.2535 2.31236 16.5659 2 16.9512 2C17.3365 2 17.6489 2.31236 17.6489 2.69767V3.46706C17.8907 3.48549 18.1197 3.50867 18.3363 3.5378C19.427 3.68443 20.3097 3.99338 21.0059 4.68953C21.702 5.38568 22.011 6.26842 22.1576 7.35905C22.3001 8.41877 22.3001 9.77284 22.3 11.4824V13.4478C22.3001 15.1573 22.3001 16.5115 22.1576 17.5712C22.011 18.6618 21.702 19.5445 21.0059 20.2407C20.3097 20.9369 19.427 21.2458 18.3363 21.3924C17.2766 21.5349 15.9226 21.5349 14.213 21.5349H10.3871C8.67758 21.5349 7.32347 21.5349 6.26375 21.3924C5.17312 21.2458 4.29038 20.9369 3.59423 20.2407C2.89808 19.5445 2.58913 18.6618 2.4425 17.5712C2.30002 16.5114 2.30003 15.1574 2.30005 13.4478V11.4824C2.30003 9.77286 2.30002 8.41878 2.4425 7.35905C2.58913 6.26842 2.89808 5.38568 3.59423 4.68953C4.29038 3.99338 5.17312 3.68443 6.26375 3.5378C6.48042 3.50867 6.7094 3.48549 6.95121 3.46706V2.69767C6.95121 2.31236 7.26357 2 7.64889 2ZM6.44968 4.92071C5.51378 5.04653 4.97457 5.28251 4.58089 5.67619C4.18721 6.06987 3.95123 6.60908 3.82541 7.54497C3.8041 7.70347 3.78628 7.87033 3.77138 8.04651H20.8287C20.8138 7.87033 20.796 7.70347 20.7747 7.54498C20.6489 6.60908 20.4129 6.06987 20.0192 5.67619C19.6255 5.28251 19.0863 5.04653 18.1504 4.92071C17.1945 4.79218 15.9343 4.7907 14.1605 4.7907H10.4396C8.6658 4.7907 7.40564 4.79218 6.44968 4.92071ZM3.6954 11.5349C3.6954 10.7405 3.6957 10.049 3.70757 9.44186H20.8925C20.9044 10.049 20.9047 10.7405 20.9047 11.5349V13.3953C20.9047 15.1691 20.9032 16.4293 20.7747 17.3853C20.6489 18.3212 20.4129 18.8604 20.0192 19.254C19.6255 19.6477 19.0863 19.8837 18.1504 20.0095C17.1945 20.1381 15.9343 20.1395 14.1605 20.1395H10.4396C8.6658 20.1395 7.40564 20.1381 6.44968 20.0095C5.51378 19.8837 4.97457 19.6477 4.58089 19.254C4.18721 18.8604 3.95123 18.3212 3.82541 17.3853C3.69688 16.4293 3.6954 15.1691 3.6954 13.3953V11.5349Z" fill="black"/>
</svg>
