<svg width="25" height="24" viewBox="0 0 25 24" fill="none" xmlns="http://www.w3.org/2000/svg">
<path fill-rule="evenodd" clip-rule="evenodd" d="M19.4399 2C19.0373 1.99996 18.6681 1.99991 18.3679 2.04029C18.0372 2.08474 17.6877 2.18935 17.4002 2.47681C17.1127 2.76427 17.0081 3.11378 16.9637 3.44446C16.9233 3.74475 16.9234 4.11389 16.9234 4.51651V16.6928C16.9234 17.0954 16.9233 17.4646 16.9637 17.7648C17.0081 18.0955 17.1127 18.445 17.4002 18.7325C17.6877 19.02 18.0372 19.1246 18.3679 19.169C18.6682 19.2094 19.0373 19.2094 19.4399 19.2093H19.5232C19.9258 19.2094 20.2949 19.2094 20.5952 19.169C20.9259 19.1246 21.2754 19.02 21.5629 18.7325C21.8503 18.445 21.9549 18.0955 21.9994 17.7648C22.0398 17.4646 22.0397 17.0954 22.0397 16.6928V4.51652C22.0397 4.1139 22.0398 3.74475 21.9994 3.44446C21.9549 3.11379 21.8503 2.76427 21.5629 2.47681C21.2754 2.18935 20.9259 2.08474 20.5952 2.04029C20.2949 1.99991 19.9258 1.99996 19.5232 2H19.4399ZM18.3891 3.4622L18.3869 3.46348L18.3856 3.46575C18.3847 3.46755 18.3832 3.47063 18.3812 3.47532C18.3729 3.49558 18.3587 3.54057 18.3466 3.63039C18.3202 3.82641 18.3188 4.09991 18.3188 4.55815V16.6512C18.3188 17.1094 18.3202 17.3829 18.3466 17.5789C18.3587 17.6687 18.3729 17.7137 18.3812 17.734C18.3832 17.7387 18.3847 17.7418 18.3856 17.7436L18.3869 17.7458L18.3891 17.7471C18.3899 17.7475 18.3909 17.748 18.3921 17.7486C18.3938 17.7494 18.396 17.7504 18.3987 17.7515C18.419 17.7598 18.464 17.774 18.5538 17.7861C18.7498 17.8125 19.0233 17.814 19.4815 17.814C19.9398 17.814 20.2133 17.8125 20.4093 17.7861C20.4991 17.774 20.5441 17.7598 20.5644 17.7515C20.5691 17.7496 20.5721 17.748 20.5739 17.7471L20.5762 17.7458L20.5775 17.7436C20.5784 17.7418 20.5799 17.7387 20.5819 17.734C20.5902 17.7137 20.6044 17.6687 20.6165 17.5789C20.6428 17.3829 20.6443 17.1094 20.6443 16.6512V4.55815C20.6443 4.09991 20.6428 3.82641 20.6165 3.63039C20.6044 3.54057 20.5902 3.49558 20.5819 3.47532C20.5799 3.47063 20.5784 3.46755 20.5775 3.46575L20.5762 3.46348L20.5739 3.4622C20.5721 3.46126 20.5691 3.45976 20.5644 3.45783C20.5441 3.44949 20.4991 3.43527 20.4093 3.42319C20.2133 3.39684 19.9398 3.39535 19.4815 3.39535C19.0233 3.39535 18.7498 3.39684 18.5538 3.42319C18.464 3.43527 18.419 3.44949 18.3987 3.45783C18.394 3.45976 18.3909 3.46126 18.3891 3.4622Z" fill="black"/>
<path fill-rule="evenodd" clip-rule="evenodd" d="M12.9283 4.7907H13.0115C13.4142 4.79065 13.7833 4.79061 14.0836 4.83098C14.4143 4.87544 14.7638 4.98004 15.0513 5.26751C15.3387 5.55497 15.4433 5.90448 15.4878 6.23516C15.5281 6.53545 15.5281 6.90459 15.5281 7.3072V16.6928C15.5281 17.0954 15.5281 17.4646 15.4878 17.7648C15.4433 18.0955 15.3387 18.445 15.0513 18.7325C14.7638 19.02 14.4143 19.1246 14.0836 19.169C13.7833 19.2094 13.4142 19.2094 13.0116 19.2093H12.9283C12.5257 19.2094 12.1565 19.2094 11.8562 19.169C11.5256 19.1246 11.176 19.02 10.8886 18.7325C10.6011 18.445 10.4965 18.0955 10.4521 17.7648C10.4117 17.4646 10.4117 17.0954 10.4118 16.6928V7.30722C10.4117 6.9046 10.4117 6.53545 10.4521 6.23516C10.4965 5.90448 10.6011 5.55497 10.8886 5.26751C11.176 4.98004 11.5256 4.87544 11.8562 4.83098C12.1565 4.79061 12.5257 4.79065 12.9283 4.7907ZM11.8753 6.25418L11.8775 6.2529L11.8754 17.7459L11.874 17.7436C11.873 17.7418 11.8715 17.7387 11.8696 17.734C11.8613 17.7137 11.847 17.6687 11.835 17.5789C11.8086 17.3829 11.8071 17.1094 11.8071 16.6512V7.34884C11.8071 6.8906 11.8086 6.61711 11.835 6.42109C11.847 6.33127 11.8613 6.28628 11.8696 6.26602C11.8715 6.26133 11.873 6.25824 11.874 6.25644L11.8753 6.25418ZM11.8754 17.7459L11.8775 6.2529L11.8811 6.25116L11.8871 6.24852C11.9074 6.24019 11.9523 6.22596 12.0422 6.21389C12.2382 6.18753 12.5117 6.18605 12.9699 6.18605C13.4282 6.18605 13.7016 6.18753 13.8977 6.21389C13.9875 6.22596 14.0325 6.24019 14.0527 6.24852C14.0574 6.25046 14.0605 6.25196 14.0623 6.2529L14.0646 6.25418L14.0659 6.25644C14.0668 6.25824 14.0683 6.26133 14.0702 6.26602C14.0786 6.28628 14.0928 6.33127 14.1049 6.42109C14.1312 6.61711 14.1327 6.8906 14.1327 7.34884V16.6512C14.1327 17.1094 14.1312 17.3829 14.1049 17.5789C14.0928 17.6687 14.0786 17.7137 14.0702 17.734C14.0683 17.7387 14.0668 17.7418 14.0659 17.7436L14.0646 17.7458L14.0623 17.7471C14.0611 17.7477 14.0594 17.7486 14.057 17.7497C14.0557 17.7502 14.0543 17.7508 14.0527 17.7515C14.0325 17.7598 13.9875 17.774 13.8977 17.7861C13.7016 17.8125 13.4282 17.814 12.9699 17.814C12.5117 17.814 12.2382 17.8125 12.0422 17.7861C11.9523 17.774 11.9074 17.7598 11.8871 17.7515C11.8824 17.7496 11.8793 17.748 11.8775 17.7471L11.8754 17.7459Z" fill="black"/>
<path fill-rule="evenodd" clip-rule="evenodd" d="M6.41667 8.51163C6.01405 8.51158 5.6449 8.51154 5.34461 8.55191C5.01393 8.59637 4.66442 8.70097 4.37696 8.98843C4.08949 9.2759 3.98489 9.62541 3.94043 9.95609C3.90006 10.2564 3.9001 10.6255 3.90015 11.0281V16.6928C3.9001 17.0954 3.90006 17.4646 3.94043 17.7648C3.98489 18.0955 4.08949 18.445 4.37696 18.7325C4.66442 19.02 5.01393 19.1246 5.34461 19.169C5.6449 19.2094 6.01405 19.2094 6.41667 19.2093H6.49991C6.90253 19.2094 7.27168 19.2094 7.57197 19.169C7.90265 19.1246 8.25216 19.02 8.53963 18.7325C8.82709 18.445 8.93169 18.0955 8.97615 17.7648C9.01652 17.4646 9.01648 17.0954 9.01643 16.6928V11.0281C9.01648 10.6255 9.01652 10.2564 8.97615 9.95609C8.93169 9.62541 8.82709 9.2759 8.53963 8.98843C8.25216 8.70097 7.90265 8.59637 7.57197 8.55191C7.27168 8.51154 6.90254 8.51158 6.49992 8.51163H6.41667ZM5.36589 9.97383L5.36363 9.97511L5.36235 9.97737C5.36141 9.97917 5.35991 9.98225 5.35797 9.98695C5.34964 10.0072 5.33541 10.0522 5.32334 10.142C5.29698 10.338 5.2955 10.6115 5.2955 11.0698V16.6512C5.2955 17.1094 5.29698 17.3829 5.32334 17.5789C5.33541 17.6687 5.34964 17.7137 5.35797 17.734C5.35991 17.7387 5.36141 17.7418 5.36235 17.7436L5.36325 17.7452L5.36589 17.7471C5.36769 17.748 5.37078 17.7495 5.37547 17.7515C5.39573 17.7598 5.44072 17.774 5.53054 17.7861C5.72656 17.8125 6.00005 17.814 6.45829 17.814C6.91653 17.814 7.19002 17.8125 7.38605 17.7861C7.47587 17.774 7.52085 17.7598 7.54111 17.7515C7.54581 17.7495 7.54889 17.748 7.55069 17.7471L7.55295 17.7458L7.55423 17.7436L7.55629 17.7393L7.55861 17.734C7.56694 17.7137 7.58117 17.6687 7.59325 17.5789C7.6196 17.3829 7.62108 17.1094 7.62108 16.6512V11.0698C7.62108 10.6115 7.6196 10.338 7.59325 10.142C7.58117 10.0522 7.56694 10.0072 7.55861 9.98695C7.55668 9.98225 7.55517 9.97917 7.55423 9.97737L7.55295 9.97511L7.55069 9.97383C7.54889 9.97289 7.54581 9.97138 7.54111 9.96945C7.52085 9.96112 7.47587 9.94689 7.38605 9.93482C7.19002 9.90846 6.91653 9.90698 6.45829 9.90698C6.00005 9.90698 5.72656 9.90846 5.53054 9.93482C5.44072 9.94689 5.39573 9.96112 5.37547 9.96945C5.37078 9.97138 5.36769 9.97289 5.36589 9.97383Z" fill="black"/>
<path d="M4.59783 20.6047C4.21251 20.6047 3.90015 20.917 3.90015 21.3023C3.90015 21.6876 4.21251 22 4.59783 22H21.342C21.7273 22 22.0397 21.6876 22.0397 21.3023C22.0397 20.917 21.7273 20.6047 21.342 20.6047H4.59783Z" fill="black"/>
</svg>
