<svg width="25" height="24" viewBox="0 0 25 24" fill="none" xmlns="http://www.w3.org/2000/svg">
<path d="M6.37963 5.74537L8.37962 4.50412C9.39538 3.87371 10.1096 3.43153 10.7066 3.1412C11.2883 2.85833 11.7003 2.75 12.1001 2.75C12.4999 2.75 12.9119 2.85833 13.4936 3.1412C14.0906 3.43153 14.8048 3.87371 15.8206 4.50412L17.8206 5.74537C18.7814 6.34169 19.456 6.76135 19.9592 7.1467C20.4488 7.52164 20.7304 7.83106 20.923 8.18285C21.1163 8.53589 21.2291 8.94865 21.2885 9.58104C21.3493 10.2286 21.3501 11.0458 21.3501 12.2039V13.725C21.3501 15.6959 21.3486 17.1012 21.2099 18.1683C21.0737 19.2163 20.8171 19.8244 20.3893 20.2669C19.965 20.7058 19.3872 20.9664 18.3859 21.1057C17.3603 21.2483 16.0076 21.25 14.1001 21.25H10.1001C8.19257 21.25 6.83993 21.2483 5.81432 21.1057C4.81296 20.9664 4.23523 20.7058 3.81089 20.2669C3.38311 19.8244 3.12651 19.2163 2.99029 18.1683C2.85159 17.1012 2.8501 15.6959 2.8501 13.725V12.2039C2.8501 11.0458 2.85086 10.2286 2.91171 9.58104C2.97113 8.94865 3.08394 8.53589 3.27719 8.18285C3.46975 7.83106 3.75142 7.52164 4.24102 7.1467C4.7442 6.76135 5.41879 6.34169 6.37963 5.74537Z" stroke="#F44F29" stroke-width="1.5"/>
<path d="M15.1001 16.75H9.1001" stroke="#F44F29" stroke-width="1.5" stroke-linecap="round"/>
</svg>
