<svg width="25" height="28" viewBox="0 0 25 28" fill="none" xmlns="http://www.w3.org/2000/svg">
<path fill-rule="evenodd" clip-rule="evenodd" d="M12.4929 9.34892C9.92416 9.34892 7.84176 11.4313 7.84176 14.0001C7.84176 16.5688 9.92416 18.6512 12.4929 18.6512C15.0617 18.6512 17.1441 16.5688 17.1441 14.0001C17.1441 11.4313 15.0617 9.34892 12.4929 9.34892ZM9.70223 14.0001C9.70223 12.4588 10.9517 11.2094 12.4929 11.2094C14.0342 11.2094 15.2836 12.4588 15.2836 14.0001C15.2836 15.5413 14.0342 16.7908 12.4929 16.7908C10.9517 16.7908 9.70223 15.5413 9.70223 14.0001Z" fill="url(#paint0_linear_3668_22783)"/>
<path fill-rule="evenodd" clip-rule="evenodd" d="M12.4929 0.666748C11.619 0.666748 10.8208 0.906863 9.94853 1.31216C9.1045 1.70434 8.12752 2.28292 6.90479 3.00703L5.97073 3.56018C4.7476 4.28451 3.77071 4.86302 3.0179 5.41644C2.23946 5.98871 1.64241 6.57448 1.21025 7.34225C0.778787 8.10879 0.583977 8.92839 0.490513 9.90093C0.399884 10.844 0.399892 11.9988 0.399903 13.4494V14.5508C0.399892 16.0013 0.399884 17.1562 0.490513 18.0992C0.583977 19.0718 0.778787 19.8914 1.21025 20.6579C1.64241 21.4257 2.23946 22.0115 3.0179 22.5837C3.77071 23.1371 4.7476 23.7157 5.97074 24.44L6.90483 24.9931C8.1275 25.7172 9.10452 26.2958 9.94853 26.688C10.8208 27.0933 11.619 27.3334 12.4929 27.3334C13.3668 27.3334 14.165 27.0933 15.0373 26.688C15.8813 26.2958 16.8583 25.7173 18.081 24.9931L19.0151 24.44C20.2382 23.7157 21.2152 23.1371 21.9679 22.5837C22.7464 22.0115 23.3434 21.4257 23.7756 20.6579C24.2071 19.8914 24.4019 19.0718 24.4953 18.0992C24.586 17.1562 24.586 16.0013 24.5859 14.5508V13.4494C24.586 11.9989 24.586 10.844 24.4953 9.90093C24.4019 8.92839 24.2071 8.10879 23.7756 7.34225C23.3434 6.57448 22.7464 5.98871 21.9679 5.41644C21.2151 4.86302 20.2383 4.28452 19.0151 3.5602L18.081 3.00702C16.8583 2.28291 15.8813 1.70434 15.0373 1.31216C14.165 0.906863 13.3668 0.666748 12.4929 0.666748ZM7.81106 4.63257C9.08503 3.87812 9.98261 3.34782 10.7325 2.99939C11.4637 2.65963 11.9853 2.52721 12.4929 2.52721C13.0005 2.52721 13.5221 2.65963 14.2534 2.99939C15.0032 3.34782 15.9008 3.87812 17.1748 4.63257L18.0258 5.13656C19.2996 5.8909 20.1964 6.42321 20.866 6.91543C21.5183 7.39502 21.8957 7.79538 22.1543 8.25482C22.4136 8.71548 22.5642 9.25453 22.6434 10.0789C22.7245 10.9227 22.7255 11.9883 22.7255 13.4961V14.5041C22.7255 16.0118 22.7245 17.0775 22.6434 17.9213C22.5642 18.7456 22.4136 19.2847 22.1543 19.7453C21.8957 20.2048 21.5183 20.6051 20.866 21.0847C20.1964 21.577 19.2996 22.1093 18.0258 22.8636L17.1748 23.3676C15.9008 24.122 15.0032 24.6523 14.2534 25.0008C13.5221 25.3405 13.0005 25.4729 12.4929 25.4729C11.9853 25.4729 11.4637 25.3405 10.7325 25.0008C9.98261 24.6523 9.08503 24.122 7.81106 23.3676L6.96001 22.8636C5.68622 22.1093 4.78944 21.577 4.11988 21.0847C3.46751 20.6051 3.09013 20.2048 2.83153 19.7453C2.57224 19.2847 2.42167 18.7456 2.34245 17.9213C2.26136 17.0775 2.26037 16.0118 2.26037 14.5041V13.4961C2.26037 11.9883 2.26136 10.9227 2.34245 10.0789C2.42167 9.25453 2.57224 8.71547 2.83153 8.25482C3.09013 7.79538 3.46751 7.39502 4.11988 6.91543C4.78944 6.42321 5.68622 5.8909 6.96001 5.13656L7.81106 4.63257Z" fill="url(#paint1_linear_3668_22783)"/>
<defs>
<linearGradient id="paint0_linear_3668_22783" x1="1.17652" y1="27.3334" x2="24.7182" y2="27.0957" gradientUnits="userSpaceOnUse">
<stop stop-color="#EF3E23"/>
<stop offset="1" stop-color="#F7901E"/>
</linearGradient>
<linearGradient id="paint1_linear_3668_22783" x1="1.17652" y1="27.3334" x2="24.7182" y2="27.0957" gradientUnits="userSpaceOnUse">
<stop stop-color="#EF3E23"/>
<stop offset="1" stop-color="#F7901E"/>
</linearGradient>
</defs>
</svg>
