<svg width="25" height="24" viewBox="0 0 25 24" fill="none" xmlns="http://www.w3.org/2000/svg">
<path fill-rule="evenodd" clip-rule="evenodd" d="M13.0816 2C9.1 2 5.87229 5.22771 5.87229 9.2093V9.86428C5.87229 10.5126 5.68039 11.1464 5.32078 11.6858L4.25231 13.2885C3.01222 15.1486 3.95893 17.677 6.11576 18.2652C6.81865 18.4569 7.52748 18.6191 8.24042 18.7517L8.24218 18.7565C8.95753 20.6652 10.8694 22 13.0815 22C15.2936 22 17.2055 20.6652 17.9209 18.7565L17.9226 18.7517C18.6356 18.6191 19.3445 18.457 20.0474 18.2652C22.2043 17.677 23.151 15.1486 21.9109 13.2885L20.8424 11.6858C20.4828 11.1464 20.2909 10.5126 20.2909 9.86428V9.2093C20.2909 5.22771 17.0632 2 13.0816 2ZM16.2224 19.0111C14.136 19.2604 12.0271 19.2604 9.94061 19.0111C10.602 19.9614 11.7523 20.6047 13.0815 20.6047C14.4108 20.6047 15.5611 19.9614 16.2224 19.0111ZM7.26764 9.2093C7.26764 5.99834 9.87063 3.39535 13.0816 3.39535C16.2925 3.39535 18.8955 5.99834 18.8955 9.2093V9.86428C18.8955 10.7881 19.169 11.6912 19.6814 12.4598L20.7499 14.0625C21.4617 15.1302 20.9183 16.5814 19.6803 16.9191C15.3601 18.0973 10.8031 18.0973 6.4829 16.9191C5.24491 16.5814 4.70152 15.1302 5.41331 14.0625L6.48178 12.4598C6.9942 11.6912 7.26764 10.7881 7.26764 9.86428V9.2093Z" fill="black"/>
</svg>
