<svg width="18" height="19" viewBox="0 0 18 19" fill="none" xmlns="http://www.w3.org/2000/svg">
<g clip-path="url(#clip0_3662_12510)">
<path d="M3.44334 3.99157C3.55082 3.99157 3.64854 3.95249 3.72184 3.87919C3.7756 3.82543 5.0605 2.56494 6.99038 1.93957C9.56512 1.09925 12.0031 1.74902 14.2261 3.85965C14.3824 4.01112 14.6316 4.00134 14.783 3.84497C14.8563 3.7668 14.8954 3.66909 14.8905 3.56647C14.8856 3.46386 14.8466 3.36615 14.7684 3.29288C13.4199 2.01771 11.9787 1.22134 10.4739 0.928199C9.26708 0.693688 8.02123 0.78163 6.77051 1.18715C4.64521 1.87604 3.22837 3.26847 3.16975 3.32709C3.09644 3.4004 3.05249 3.49811 3.05249 3.60559C3.05249 3.71308 3.09158 3.81079 3.16488 3.88409C3.23811 3.94759 3.33586 3.99157 3.44334 3.99157Z" fill="#4381C5"/>
<path d="M15.6869 9.11179C15.2862 6.53214 14.27 4.68047 12.6626 3.6154C10.3272 2.06664 7.56684 2.73599 7.45446 2.7653C7.24436 2.81416 7.11246 3.02912 7.16619 3.23922C7.21505 3.44932 7.43001 3.58122 7.64011 3.52749C7.74273 3.50305 10.1562 2.91677 12.2082 4.27501C13.6397 5.22282 14.5534 6.88884 14.9149 9.22911C14.9296 9.33172 14.9882 9.42453 15.0712 9.48806C15.1396 9.53692 15.2178 9.56623 15.3009 9.56623C15.3204 9.56623 15.34 9.56624 15.3595 9.56133C15.5696 9.52708 15.721 9.32676 15.6869 9.11179ZM3.09644 9.11669C3.44821 5.00295 6.17932 4.05511 6.29658 4.01602C6.39429 3.98181 6.47736 3.91341 6.52132 3.8206C6.57018 3.72775 6.57508 3.62027 6.54086 3.52256C6.47246 3.31736 6.24772 3.20497 6.04253 3.27337C5.90573 3.31736 2.70559 4.42638 2.30987 9.05316C2.3001 9.15578 2.33431 9.25836 2.40271 9.34143C2.47111 9.4196 2.56396 9.46846 2.67144 9.47823H2.70566C2.7985 9.47823 2.88644 9.44401 2.95971 9.38538C3.03781 9.31698 3.08667 9.21927 3.09644 9.11669Z" fill="#4381C5"/>
<path d="M4.73319 9.08737C4.86021 8.0858 5.26574 7.12821 5.88133 6.3856C6.32104 5.85795 6.86336 5.44756 7.44963 5.1935C8.07499 4.92478 8.74434 4.83197 9.4381 4.91501C10.4055 5.03716 11.3728 5.49641 12.3255 6.28788C12.4916 6.42468 12.7408 6.40514 12.8776 6.23903C12.946 6.16086 12.9753 6.05824 12.9656 5.95076C12.9558 5.84328 12.9069 5.75043 12.8239 5.68693C11.7539 4.79775 10.6497 4.27497 9.53091 4.13817C8.70036 4.03556 7.89421 4.14794 7.13692 4.4753C6.43826 4.77821 5.79335 5.26677 5.27548 5.88726C4.56217 6.74226 4.09315 7.84642 3.95145 8.99456C3.84884 9.81048 3.72181 10.5042 3.57037 11.0514C3.37495 11.7599 3.14531 12.2289 2.89616 12.4389C2.81799 12.5073 2.76423 12.6002 2.75446 12.7077C2.74469 12.8103 2.7789 12.9129 2.8424 12.9959C2.87952 13.0402 2.92586 13.0758 2.97818 13.1003C3.0305 13.1248 3.08754 13.1375 3.14531 13.1376C3.23325 13.1376 3.32609 13.1083 3.39936 13.0448C3.77557 12.7321 4.08825 12.1312 4.32763 11.2615C4.48891 10.6703 4.6257 9.93747 4.73319 9.08737Z" fill="#4381C5"/>
<path d="M12.6235 10.5238V10.5189C12.5844 10.1622 12.5453 9.79091 12.5111 9.47336C12.5002 9.37884 12.4888 9.28438 12.4769 9.18999C12.3694 8.20796 12.2619 7.27479 11.4069 6.51263C10.9281 6.0827 10.2978 5.78956 9.63339 5.67717C9.0862 5.58923 8.52434 5.62341 8.01623 5.78956C7.4495 5.97034 6.95603 6.2928 6.54564 6.74714C6.00331 7.35296 5.64178 8.16398 5.47567 9.16555C5.47076 9.18509 5.47076 9.20463 5.4659 9.21931V9.23398C5.38282 10.172 5.1239 11.4228 4.79168 12.4927C4.48387 13.4796 4.16632 14.1637 3.92204 14.3689C3.84386 14.4373 3.79011 14.5301 3.78034 14.6376C3.77056 14.7402 3.80478 14.8428 3.86828 14.9259C3.93668 15.004 4.02952 15.0578 4.137 15.0676C4.23962 15.0773 4.3422 15.0431 4.42527 14.9796C4.91874 14.5692 5.3389 13.3966 5.5441 12.7322C5.89586 11.6036 6.16459 10.2893 6.25253 9.30244C6.39423 8.45234 6.69224 7.77322 7.13195 7.27976C7.44463 6.92799 7.82084 6.68371 8.25564 6.54691C8.65139 6.41989 9.08133 6.39057 9.51127 6.46384C10.0291 6.55178 10.5226 6.77652 10.889 7.10875C11.5193 7.67061 11.6072 8.45718 11.7 9.28777C11.7147 9.40016 11.7245 9.50764 11.7342 9.57604C11.7782 9.95712 11.8124 10.2893 11.8466 10.6118C12.0225 12.3071 12.2082 14.0611 12.9557 15.7076C13.0192 15.8541 13.1658 15.9372 13.3124 15.9372C13.3661 15.9372 13.4198 15.9274 13.4736 15.903C13.669 15.815 13.757 15.5805 13.669 15.3851C12.9704 13.8411 12.7945 12.1556 12.6235 10.5238Z" fill="#4381C5"/>
<path d="M10.938 9.78597C11.0113 9.06289 10.8745 8.43263 10.5374 7.95871C10.3322 7.66557 10.0537 7.44083 9.73125 7.3089C9.42526 7.18284 9.08952 7.14722 8.76389 7.20629C8.33395 7.28446 7.95287 7.52874 7.68905 7.89027C7.52781 8.11014 7.38614 8.38374 7.26889 8.70129C7.1565 9.0091 7.05879 9.36574 6.98062 9.77126C6.92199 10.0791 6.8829 10.3527 6.84869 10.6116C6.78516 11.0855 6.73143 11.5008 6.53601 12.0626C6.34058 12.6245 6.06699 13.2401 5.71522 13.9045C5.25597 14.7742 4.82113 15.4093 4.64525 15.6292C4.50845 15.7953 4.53286 16.0445 4.69901 16.1813C4.78208 16.2497 4.88466 16.279 4.98728 16.2692C5.08989 16.2594 5.18761 16.2106 5.2511 16.1275C5.49538 15.8295 5.97418 15.0966 6.40901 14.2758C6.77545 13.587 7.06859 12.9274 7.27866 12.3216C7.49853 11.6815 7.56202 11.2125 7.63042 10.719C7.66464 10.4748 7.69882 10.2207 7.75745 9.92266C7.82585 9.56113 7.91379 9.24354 8.0115 8.97972C8.10435 8.72567 8.21183 8.51557 8.32909 8.35923C8.47565 8.1589 8.68085 8.02701 8.91049 7.98792C9.08637 7.9537 9.26716 7.97325 9.43814 8.04655C9.61893 8.11985 9.78014 8.25174 9.89739 8.42276C10.1221 8.74034 10.2101 9.18982 10.1563 9.72234C10.0586 10.6848 9.67265 12.087 9.06683 13.6651C8.4268 15.3409 7.62065 16.9971 7.14676 17.5981C7.01483 17.7691 7.04415 18.0134 7.21516 18.1502C7.28846 18.2039 7.3715 18.2332 7.45457 18.2332C7.57183 18.2332 7.68908 18.1795 7.76238 18.0818C8.28516 17.4124 9.12059 15.7122 9.79484 13.9436C10.4299 12.2874 10.8305 10.8168 10.938 9.78597ZM14.2994 10.7436C14.2212 9.54655 14.1381 8.3056 13.7229 7.37243C13.6349 7.177 13.4004 7.08416 13.205 7.1721C13.0096 7.26004 12.9167 7.49455 13.0047 7.68998C13.3613 8.49122 13.4395 9.65891 13.5128 10.7924C13.5958 12.0383 13.674 13.2157 14.1088 14.0121C14.1329 14.0581 14.1661 14.0988 14.2064 14.1316C14.2467 14.1643 14.2933 14.1885 14.3433 14.2026C14.3824 14.2124 14.4166 14.2173 14.4557 14.2173C14.5192 14.2173 14.5827 14.2026 14.6414 14.1685C14.6874 14.1444 14.7281 14.1112 14.7608 14.0709C14.7936 14.0306 14.8178 13.984 14.8319 13.934C14.8612 13.8313 14.8515 13.7288 14.7977 13.6359C14.4459 12.991 14.3775 11.9015 14.2994 10.7436Z" fill="#4381C5"/>
<path d="M9.37943 9.1851C9.38434 9.08248 9.35012 8.9799 9.27682 8.90173C9.20842 8.82356 9.11071 8.77957 9.00322 8.7747C8.78826 8.76493 8.6026 8.93104 8.59283 9.14601C8.51953 10.6068 8.20685 12.0921 7.69387 13.4454C7.19064 14.7792 6.50665 15.9322 5.67119 16.8703C5.52949 17.0315 5.53926 17.2807 5.7054 17.4272C5.77871 17.4956 5.87152 17.525 5.96436 17.525C6.07184 17.525 6.17933 17.481 6.2575 17.393C7.15645 16.3817 7.88933 15.1456 8.43162 13.7239C8.97391 12.2924 9.30126 10.7241 9.37943 9.1851ZM11.6415 13.8265L11.6024 13.6311C11.5905 13.5613 11.5603 13.4961 11.5148 13.442C11.4692 13.3879 11.4101 13.3469 11.3435 13.3232C11.2457 13.289 11.1383 13.2939 11.0405 13.3379C10.9477 13.3819 10.8744 13.4649 10.8402 13.5627L10.8256 13.6066C10.552 14.3785 10.2833 15.1358 9.94617 15.8931C9.56996 16.7481 9.15956 17.5005 8.69545 18.1894C8.63682 18.2773 8.61728 18.38 8.63682 18.4825C8.65636 18.5852 8.71499 18.6731 8.80293 18.7317C8.87133 18.7757 8.94463 18.8001 9.0228 18.8001C9.14983 18.8001 9.27198 18.7415 9.35015 18.6291C9.83872 17.906 10.2687 17.1145 10.6693 16.2107C10.8207 15.8687 10.9673 15.5072 11.1237 15.0919C11.2947 15.7563 11.5292 16.4745 11.9787 17.2709C12.0275 17.3637 12.1155 17.4272 12.2132 17.4566C12.3158 17.4859 12.4184 17.4712 12.5112 17.4223C12.6041 17.3686 12.6675 17.2855 12.6969 17.1878C12.7262 17.0852 12.7115 16.9826 12.6626 16.8898C12.0666 15.8199 11.8614 14.8525 11.6415 13.8265Z" fill="#4381C5"/>
</g>
<defs>
<clipPath id="clip0_3662_12510">
<rect width="18" height="18" fill="white" transform="translate(0 0.800049)"/>
</clipPath>
</defs>
</svg>
