<svg width="16" height="17" viewBox="0 0 16 17" fill="none" xmlns="http://www.w3.org/2000/svg">
<g clip-path="url(#clip0_3629_4737)">
<path d="M1.5 7.53337C1.5 6.24799 1.50018 5.30529 1.53701 4.62895C1.5554 4.29123 1.58218 4.03699 1.61838 3.84917C1.65616 3.65311 1.6962 3.57469 1.71127 3.55322C1.7249 3.5338 1.78284 3.47134 1.95321 3.3724C2.11642 3.27761 2.34545 3.17029 2.65644 3.04395C3.27928 2.79092 4.16502 2.48752 5.37386 2.07374L5.83211 1.91688C7.11743 1.47691 7.65332 1.30005 8.2 1.30005C8.74668 1.30005 9.28257 1.47691 10.5679 1.91688L11.0261 2.07374C12.235 2.48752 13.1207 2.79092 13.7436 3.04395C14.0545 3.17029 14.2836 3.27761 14.4468 3.3724C14.6172 3.47134 14.6751 3.5338 14.6887 3.55322C14.7038 3.57469 14.7438 3.65311 14.7816 3.84917C14.8178 4.03699 14.8446 4.29123 14.863 4.62895C14.8998 5.30529 14.9 6.24799 14.9 7.53337V7.53564V7.5379V7.54017V7.54244V7.5447V7.54697V7.54924V7.55151V7.55378V7.55605V7.55832V7.5606V7.56287V7.56514V7.56742V7.56969V7.57197V7.57425V7.57652V7.5788V7.58108V7.58336V7.58564V7.58793V7.59021V7.59249V7.59477V7.59706V7.59934V7.60163V7.60392V7.6062V7.60849V7.61078V7.61307V7.61536V7.61765V7.61995V7.62224V7.62453V7.62683V7.62912V7.63142V7.63372V7.63601V7.63831V7.64061V7.64291V7.64521V7.64751V7.64981V7.65211V7.65442V7.65672V7.65903V7.66133V7.66364V7.66595V7.66825V7.67056V7.67287V7.67518V7.67749V7.67981V7.68212V7.68443V7.68675V7.68906V7.69138V7.69369V7.69601V7.69833V7.70064V7.70296V7.70528V7.7076V7.70993V7.71225V7.71457V7.7169V7.71922V7.72154V7.72387V7.7262V7.72853V7.73085V7.73318V7.73551V7.73784V7.74017V7.74251V7.74484V7.74717V7.74951V7.75184V7.75418V7.75652V7.75885V7.76119V7.76353V7.76587V7.76821V7.77055V7.77289V7.77524V7.77758V7.77992V7.78227V7.78461V7.78696V7.78931V7.79166V7.794V7.79635V7.7987V7.80106V7.80341V7.80576V7.80811V7.81047V7.81282V7.81518V7.81753V7.81989V7.82225V7.82461V7.82697V7.82933V7.83169V7.83405V7.83641V7.83878V7.84114V7.8435V7.84587V7.84824V7.8506V7.85297V7.85534V7.85771V7.86008V7.86245V7.86482V7.86719V7.86957V7.87194V7.87432V7.87669V7.87907V7.88145V7.88382V7.8862V7.88858V7.89096V7.89334V7.89572V7.89811V7.90049V7.90287V7.90526V7.90764V7.91003V7.91242V7.9148V7.91719V7.91958V7.92197V7.92436V7.92675V7.92915V7.93154V7.93393V7.93633V7.93872V7.94112V7.94352V7.94591V7.94831V7.95071V7.95311V7.95551V7.95791V7.96032V7.96272V7.96512V7.96753V7.96993V7.97234V7.97475V7.97715V7.97956V7.98197V7.98438V7.98679V7.9892V7.99162V7.99403V7.99644V7.99886V8.00127V8.00369V8.00611V8.00852V8.01094V8.01336V8.01578V8.0182V8.02062V8.02305V8.02547V8.02789V8.03032V8.03274V8.03517V8.0376V8.04002V8.04245V8.04488V8.04731V8.04974V8.05218V8.05461V8.05704V8.05947V8.06191V8.06434V8.06678V8.06922V8.07166V8.07409V8.07653V8.07897V8.08141V8.08386V8.0863V8.08874V8.09119V8.09363V8.09608V8.09852V8.10097V8.10342V8.10587V8.10832V8.11077V8.11322V8.11567V8.11812V8.12057V8.12303V8.12548V8.12794V8.1304V8.13285V8.13531V8.13777V8.14023V8.14269V8.14515V8.14761V8.15008V8.15254V8.155V8.15747V8.15993V8.1624V8.16487V8.16734V8.1698V8.17227V8.17474V8.17722V8.17969V8.18216V8.18463V8.18711V8.18958V8.19206V8.19454V8.19701V8.19949V8.20197V8.20445V8.20693V8.20941V8.21189V8.21438V8.21686V8.21935V8.22183V8.22432V8.2268V8.22929V8.23178V8.23427V8.23676V8.23925V8.24174V8.24423V8.24673V8.24922V8.25172V8.25421V8.25671V8.2592V8.2617V8.2642V8.2667V8.2692V8.2717V8.2742V8.27671V8.27921V8.28171V8.28422V8.28672V8.28923V8.29174V8.29424V8.29675V8.29926V8.30177V8.30428V8.3068V8.30931V8.31182V8.31434V8.31685V8.31937V8.32188V8.3244V8.32692V8.32944V8.33196V8.33448V8.337V8.33952V8.34205V8.34457V8.34709V8.34962V8.35215V8.35467V8.3572V8.35973V8.36226V8.36479V8.36732V8.36985V8.37238V8.37492V8.37745V8.37998V8.38252V8.38506V8.38759V8.39013V8.39267V8.39521V8.39775V8.40029V8.40283V8.40538V8.40792V8.41046V8.41301V8.41555V8.4181V8.42065V8.4232V8.42575V8.4283V8.43085V8.4334V8.43595V8.4385V8.44106V8.44361V8.44617V8.44872V8.45128V8.45384V8.4564V8.45895V8.46151V8.46408V8.46664V8.4692V8.47176V8.47433V8.47689V8.47946V8.48202V8.48459V8.48716V8.48973V8.4923V8.49487V8.49744V8.50001V8.50258V8.50516V8.50773V8.51031V8.51288V8.51546V8.51804V8.52062V8.52319V8.52577V8.52836V8.53094V8.53352V8.5361V8.53869V8.54127V8.54386V8.54644V8.54903V8.55162V8.55421V8.5568V8.55939V8.56198V8.56457V8.56716V8.56976V8.57235V8.57495V8.57754V8.58014V8.58274V8.58533V8.58793V8.59053V8.59313V8.59574V8.59834V8.60094V8.60354V8.60615V8.60875V8.61136V8.61397V8.61658V8.61918V8.62179V8.6244V8.62702V8.62963V8.63224V8.63485V8.63747V8.64008V8.6427V8.64532V8.64793V8.65055V8.65317V8.65579V8.65841V8.66103V8.66366V8.66628V8.6689V8.67153V8.67415V8.67678V8.67941V8.68203V8.68466V8.68729V8.68992V8.69255V8.69519V8.69782V8.70045V8.70309V8.70572V8.70836V8.71099V8.71363V8.71627V8.71891V8.72155V8.72419V8.72683V8.72948V8.73212V8.73476V8.73741V8.74005V8.7427V8.74535V8.74799V8.75064V8.75329V8.75594V8.75859V8.76125V8.7639V8.76655V8.76921V8.77186V8.77452V8.77718V8.77983V8.78249V8.78515V8.78781V8.79047V8.79314C14.9 12.9949 11.7549 15.0578 9.681 15.9637C9.38525 16.0929 9.20616 16.1699 9.00592 16.2211C8.81283 16.2706 8.58128 16.3 8.2 16.3C7.81872 16.3 7.58717 16.2706 7.39408 16.2211C7.19384 16.1699 7.01475 16.0929 6.719 15.9637C4.64513 15.0578 1.5 12.9949 1.5 8.79314V8.79047V8.78781V8.78515V8.78249V8.77983V8.77718V8.77452V8.77186V8.76921V8.76655V8.7639V8.76125V8.75859V8.75594V8.75329V8.75064V8.74799V8.74535V8.7427V8.74005V8.73741V8.73476V8.73212V8.72948V8.72683V8.72419V8.72155V8.71891V8.71627V8.71363V8.71099V8.70836V8.70572V8.70309V8.70045V8.69782V8.69519V8.69255V8.68992V8.68729V8.68466V8.68203V8.67941V8.67678V8.67415V8.67153V8.6689V8.66628V8.66366V8.66103V8.65841V8.65579V8.65317V8.65055V8.64793V8.64532V8.6427V8.64008V8.63747V8.63485V8.63224V8.62963V8.62702V8.6244V8.62179V8.61918V8.61658V8.61397V8.61136V8.60875V8.60615V8.60354V8.60094V8.59834V8.59574V8.59313V8.59053V8.58793V8.58533V8.58274V8.58014V8.57754V8.57495V8.57235V8.56976V8.56716V8.56457V8.56198V8.55939V8.5568V8.55421V8.55162V8.54903V8.54644V8.54386V8.54127V8.53869V8.5361V8.53352V8.53094V8.52836V8.52577V8.52319V8.52062V8.51804V8.51546V8.51288V8.51031V8.50773V8.50516V8.50258V8.50001V8.49744V8.49487V8.4923V8.48973V8.48716V8.48459V8.48202V8.47946V8.47689V8.47433V8.47176V8.4692V8.46664V8.46408V8.46151V8.45895V8.4564V8.45384V8.45128V8.44872V8.44617V8.44361V8.44106V8.4385V8.43595V8.4334V8.43085V8.4283V8.42575V8.4232V8.42065V8.4181V8.41555V8.41301V8.41046V8.40792V8.40538V8.40283V8.40029V8.39775V8.39521V8.39267V8.39013V8.38759V8.38506V8.38252V8.37998V8.37745V8.37492V8.37238V8.36985V8.36732V8.36479V8.36226V8.35973V8.3572V8.35467V8.35215V8.34962V8.34709V8.34457V8.34205V8.33952V8.337V8.33448V8.33196V8.32944V8.32692V8.3244V8.32188V8.31937V8.31685V8.31434V8.31182V8.30931V8.3068V8.30428V8.30177V8.29926V8.29675V8.29424V8.29174V8.28923V8.28672V8.28422V8.28171V8.27921V8.27671V8.2742V8.2717V8.2692V8.2667V8.2642V8.2617V8.2592V8.25671V8.25421V8.25172V8.24922V8.24673V8.24423V8.24174V8.23925V8.23676V8.23427V8.23178V8.22929V8.2268V8.22432V8.22183V8.21935V8.21686V8.21438V8.21189V8.20941V8.20693V8.20445V8.20197V8.19949V8.19701V8.19454V8.19206V8.18958V8.18711V8.18463V8.18216V8.17969V8.17722V8.17474V8.17227V8.1698V8.16734V8.16487V8.1624V8.15993V8.15747V8.155V8.15254V8.15008V8.14761V8.14515V8.14269V8.14023V8.13777V8.13531V8.13285V8.1304V8.12794V8.12548V8.12303V8.12057V8.11812V8.11567V8.11322V8.11077V8.10832V8.10587V8.10342V8.10097V8.09852V8.09608V8.09363V8.09119V8.08874V8.0863V8.08386V8.08142V8.07897V8.07653V8.07409V8.07166V8.06922V8.06678V8.06434V8.06191V8.05947V8.05704V8.05461V8.05218V8.04974V8.04731V8.04488V8.04245V8.04002V8.0376V8.03517V8.03274V8.03032V8.02789V8.02547V8.02305V8.02062V8.0182V8.01578V8.01336V8.01094V8.00852V8.00611V8.00369V8.00127V7.99886V7.99644V7.99403V7.99162V7.9892V7.98679V7.98438V7.98197V7.97956V7.97715V7.97475V7.97234V7.96993V7.96753V7.96512V7.96272V7.96032V7.95791V7.95551V7.95311V7.95071V7.94831V7.94591V7.94352V7.94112V7.93872V7.93633V7.93393V7.93154V7.92915V7.92675V7.92436V7.92197V7.91958V7.91719V7.9148V7.91242V7.91003V7.90764V7.90526V7.90287V7.90049V7.89811V7.89572V7.89334V7.89096V7.88858V7.8862V7.88382V7.88145V7.87907V7.87669V7.87432V7.87194V7.86957V7.8672V7.86482V7.86245V7.86008V7.85771V7.85534V7.85297V7.8506V7.84824V7.84587V7.8435V7.84114V7.83878V7.83641V7.83405V7.83169V7.82933V7.82697V7.82461V7.82225V7.81989V7.81753V7.81518V7.81282V7.81047V7.80811V7.80576V7.80341V7.80106V7.7987V7.79635V7.794V7.79166V7.78931V7.78696V7.78461V7.78227V7.77992V7.77758V7.77524V7.77289V7.77055V7.76821V7.76587V7.76353V7.76119V7.75885V7.75652V7.75418V7.75184V7.74951V7.74717V7.74484V7.74251V7.74017V7.73784V7.73551V7.73318V7.73085V7.72853V7.7262V7.72387V7.72155V7.71922V7.7169V7.71457V7.71225V7.70993V7.7076V7.70528V7.70296V7.70064V7.69833V7.69601V7.69369V7.69138V7.68906V7.68675V7.68443V7.68212V7.67981V7.67749V7.67518V7.67287V7.67056V7.66825V7.66595V7.66364V7.66133V7.65903V7.65672V7.65442V7.65211V7.64981V7.64751V7.64521V7.64291V7.64061V7.63831V7.63601V7.63372V7.63142V7.62912V7.62683V7.62453V7.62224V7.61995V7.61765V7.61536V7.61307V7.61078V7.60849V7.6062V7.60392V7.60163V7.59934V7.59706V7.59477V7.59249V7.59021V7.58793V7.58564V7.58336V7.58108V7.5788V7.57652V7.57425V7.57197V7.56969V7.56742V7.56514V7.56287V7.5606V7.55832V7.55605V7.55378V7.55151V7.54924V7.54697V7.5447V7.54244V7.54017V7.5379V7.53564V7.53337Z" stroke="#4381C5"/>
<path d="M6.19995 9.12007L7.34281 10.4001L10.2 7.20007" stroke="#4381C5" stroke-linecap="round" stroke-linejoin="round"/>
</g>
<defs>
<clipPath id="clip0_3629_4737">
<rect y="0.800049" width="16" height="16" rx="5" fill="white"/>
</clipPath>
</defs>
</svg>
