<svg width="16" height="14" viewBox="0 0 16 14" fill="none" xmlns="http://www.w3.org/2000/svg">
<path fill-rule="evenodd" clip-rule="evenodd" d="M8.01428 4.21429C6.47577 4.21429 5.22857 5.46149 5.22857 7C5.22857 8.53851 6.47577 9.78571 8.01428 9.78571C9.55279 9.78571 10.8 8.53851 10.8 7C10.8 5.46149 9.55279 4.21429 8.01428 4.21429ZM6.34285 7C6.34285 6.0769 7.09118 5.32857 8.01428 5.32857C8.93738 5.32857 9.68571 6.0769 9.68571 7C9.68571 7.9231 8.93738 8.67143 8.01428 8.67143C7.09118 8.67143 6.34285 7.9231 6.34285 7Z" fill="#949CA9"/>
<path fill-rule="evenodd" clip-rule="evenodd" d="M8.01428 0.5C4.66092 0.5 2.40221 2.50883 1.09127 4.21196L1.06763 4.24266C0.771153 4.62771 0.498095 4.98234 0.312846 5.40167C0.114472 5.8507 0.0285645 6.34011 0.0285645 7C0.0285645 7.65989 0.114472 8.1493 0.312846 8.59833C0.498096 9.01766 0.771155 9.37229 1.06763 9.75734L1.09127 9.78805C2.40221 11.4912 4.66092 13.5 8.01428 13.5C11.3676 13.5 13.6263 11.4912 14.9373 9.78805L14.9609 9.75736C15.2574 9.3723 15.5305 9.01767 15.7157 8.59833C15.9141 8.1493 16 7.65989 16 7C16 6.34011 15.9141 5.8507 15.7157 5.40167C15.5305 4.98233 15.2574 4.6277 14.9609 4.24264L14.9373 4.21196C13.6263 2.50883 11.3676 0.5 8.01428 0.5ZM1.97427 4.89162C3.18469 3.31908 5.15455 1.61429 8.01428 1.61429C10.874 1.61429 12.8439 3.31908 14.0543 4.89162C14.3801 5.3149 14.5709 5.56781 14.6965 5.85195C14.8138 6.1175 14.8857 6.44207 14.8857 7C14.8857 7.55793 14.8138 7.8825 14.6965 8.14805C14.5709 8.43219 14.3801 8.68511 14.0543 9.10838C12.8439 10.6809 10.874 12.3857 8.01428 12.3857C5.15455 12.3857 3.1847 10.6809 1.97427 9.10838C1.64847 8.68511 1.45763 8.43219 1.3321 8.14805C1.21479 7.8825 1.14285 7.55793 1.14285 7C1.14285 6.44207 1.21479 6.1175 1.3321 5.85195C1.45763 5.56781 1.64846 5.3149 1.97427 4.89162Z" fill="#949CA9"/>
</svg>
